# Blender 4.5.3 LTS
# www.blender.org
mtllib plane v3 .mtl
o Cylinder
v 12.790085 0.818887 -0.335740
v 6.358487 0.122833 -1.740756
v 12.790085 0.753388 -0.329289
v 6.358487 -0.216772 -1.707308
v 12.790085 0.690405 -0.310183
v 6.358487 -0.543326 -1.608249
v 12.790085 0.632360 -0.279158
v 6.358487 -0.844279 -1.447386
v 12.790085 0.581483 -0.237404
v 6.358487 -1.108068 -1.230901
v 12.790085 0.539729 -0.186527
v 6.358487 -1.324553 -0.967113
v 12.790085 0.508704 -0.128482
v 6.358487 -1.485416 -0.666159
v 12.790085 0.489598 -0.065500
v 6.358487 -1.584475 -0.339605
v 12.790085 0.483147 0.000000
v 6.358487 -1.617923 0.000000
v 12.790085 0.489598 0.065500
v 6.358487 -1.584475 0.339605
v 12.790085 0.508704 0.128482
v 6.358487 -1.485416 0.666159
v 12.790085 0.539729 0.186527
v 6.358487 -1.324553 0.967113
v 12.790085 0.581483 0.237404
v 6.358487 -1.108068 1.230901
v 12.790085 0.632360 0.279158
v 6.358487 -0.844279 1.447386
v 12.790085 0.690405 0.310183
v 6.358487 -0.543326 1.608249
v 12.790085 0.753388 0.329289
v 6.358487 -0.216772 1.707308
v 12.790085 0.818887 0.335740
v 6.358487 0.122833 1.740756
v 12.790085 0.884387 0.329289
v 6.358487 0.462438 1.707308
v 12.790085 0.947369 0.310183
v 6.358487 0.788992 1.608249
v 12.790085 1.005415 0.279158
v 6.358487 1.089946 1.447386
v 12.790085 1.056291 0.237404
v 6.358487 1.353734 1.230901
v 12.790085 1.098045 0.186527
v 6.358487 1.570219 0.967113
v 12.790085 1.129071 0.128482
v 6.358487 1.731082 0.666159
v 12.790085 1.148176 0.065500
v 6.358487 1.830141 0.339605
v 12.790085 1.154627 -0.000000
v 6.358487 1.863590 0.000000
v 12.790085 1.148176 -0.065500
v 6.358487 1.830141 -0.339605
v 12.790085 1.129071 -0.128482
v 6.358487 1.731082 -0.666159
v 12.790085 1.098045 -0.186527
v 6.358487 1.570219 -0.967113
v 12.790085 1.056291 -0.237404
v 6.358487 1.353734 -1.230901
v 12.790085 1.005415 -0.279158
v 6.358487 1.089946 -1.447386
v 12.790085 0.947369 -0.310183
v 6.358487 0.788992 -1.608249
v 12.790085 0.884387 -0.329289
v 6.358487 0.462438 -1.707308
v -6.696385 -0.038482 -1.742490
v -6.141651 0.000000 -1.961612
v -6.141651 -0.382691 -1.923920
v -6.696385 -0.378425 -1.709009
v -6.141651 -0.750676 -1.812293
v -6.696385 -0.705304 -1.609851
v -6.141651 -1.089813 -1.631021
v -6.696385 -1.006557 -1.448828
v -6.141651 -1.387069 -1.387069
v -6.696385 -1.270608 -1.232127
v -6.141651 -1.631020 -1.089813
v -6.696385 -1.487309 -0.968076
v -6.141651 -1.812293 -0.750677
v -6.696385 -1.648333 -0.666822
v -6.141651 -1.923920 -0.382692
v -6.696385 -1.747491 -0.339943
v -6.141651 -1.961612 0.000000
v -6.696385 -1.780972 0.000000
v -6.141651 -1.923920 0.382692
v -6.696385 -1.747491 0.339943
v -6.141651 -1.812293 0.750677
v -6.696385 -1.648333 0.666822
v -6.141651 -1.631021 1.089813
v -6.696385 -1.487309 0.968076
v -6.141651 -1.387069 1.387069
v -6.696385 -1.270608 1.232127
v -6.141651 -1.089813 1.631021
v -6.696385 -1.006557 1.448828
v -6.141651 -0.750676 1.812293
v -6.696385 -0.705304 1.609851
v -6.141651 -0.382691 1.923920
v -6.696385 -0.378425 1.709009
v -6.141651 0.000000 1.961612
v -6.696385 -0.038482 1.742490
v -6.141651 0.382692 1.923920
v -6.696385 0.301461 1.709009
v -6.141651 0.750677 1.812293
v -6.696385 0.628340 1.609851
v -6.141651 1.089814 1.631021
v -6.696385 0.929594 1.448828
v -6.141651 1.387070 1.387069
v -6.696385 1.193645 1.232127
v -6.141651 1.631021 1.089813
v -6.696385 1.410346 0.968076
v -6.141651 1.812294 0.750677
v -6.696385 1.571369 0.666822
v -6.141651 1.923921 0.382692
v -6.696385 1.670527 0.339943
v -6.141651 1.961613 0.000000
v -6.696385 1.704009 0.000000
v -6.141651 1.923921 -0.382692
v -6.696385 1.670527 -0.339943
v -6.141651 1.812294 -0.750677
v -6.696385 1.571369 -0.666822
v -6.141651 1.631021 -1.089813
v -6.696385 1.410346 -0.968076
v -6.141651 1.387070 -1.387069
v -6.696385 1.193645 -1.232127
v -6.141651 1.089814 -1.631021
v -6.696385 0.929594 -1.448828
v -6.141651 0.750677 -1.812293
v -6.696385 0.628340 -1.609851
v -6.141651 0.382692 -1.923920
v -6.696385 0.301461 -1.709009
v -7.413564 -0.269375 -1.391972
v -7.413564 -0.540935 -1.365226
v -7.413564 -0.802059 -1.286015
v -7.413564 -1.042713 -1.157382
v -7.413564 -1.253648 -0.984273
v -7.413564 -1.426757 -0.773338
v -7.413564 -1.555389 -0.532685
v -7.413564 -1.634601 -0.271560
v -7.413564 -1.661347 0.000000
v -7.413564 -1.634601 0.271560
v -7.413564 -1.555389 0.532685
v -7.413564 -1.426757 0.773338
v -7.413564 -1.253648 0.984273
v -7.413564 -1.042713 1.157382
v -7.413564 -0.802059 1.286015
v -7.413564 -0.540935 1.365226
v -7.413564 -0.269375 1.391972
v -7.413564 0.002185 1.365226
v -7.413564 0.263310 1.286015
v -7.413564 0.503963 1.157382
v -7.413564 0.714898 0.984273
v -7.413564 0.888008 0.773338
v -6.585606 1.219929 -0.968076
v -7.808184 0.613560 -0.389255
v -6.585606 1.360020 -0.666822
v -7.823366 0.533204 0.565110
v -7.808184 0.613560 0.389255
v -7.413564 0.888008 -0.773338
v -7.413564 0.714898 -0.984273
v -7.413564 0.503963 -1.157382
v -7.413564 0.263310 -1.286015
v -7.413564 0.002185 -1.365226
v -8.035379 -0.299439 -1.017172
v -8.035379 -0.497879 -0.997628
v -8.035379 -0.688694 -0.939745
v -8.035379 -0.864549 -0.845748
v -8.035379 -1.018688 -0.719249
v -8.035379 -1.145187 -0.565111
v -8.035379 -1.239184 -0.389255
v -8.035379 -1.297066 -0.198440
v -8.035379 -1.316611 0.000000
v -8.035379 -1.297066 0.198440
v -8.035379 -1.239184 0.389255
v -8.035379 -1.145187 0.565111
v -8.035379 -1.018688 0.719249
v -8.035379 -0.864549 0.845748
v -8.035379 -0.688694 0.939745
v -8.035379 -0.497879 0.997628
v -8.035379 -0.299439 1.017172
v -8.035379 -0.100999 0.997628
v -8.035379 0.089816 0.939745
v -8.035379 0.265672 0.845748
v -8.035379 0.419810 0.719249
v -8.035379 0.546309 0.565111
v -8.035379 0.640306 0.389255
v -8.035379 0.698189 0.198440
v -8.035379 0.717733 0.000000
v -8.035379 0.698189 -0.198440
v -8.035379 0.640306 -0.389255
v -8.035379 0.546309 -0.565111
v -8.035379 0.419810 -0.719249
v -8.035379 0.265672 -0.845748
v -8.035379 0.089816 -0.939745
v -8.035379 -0.100999 -0.997628
v -8.605479 -0.307256 -0.612680
v -8.605479 -0.426783 -0.600908
v -8.605479 -0.541718 -0.566043
v -8.605479 -0.647642 -0.509425
v -8.605479 -0.740486 -0.433230
v -8.605479 -0.816680 -0.340387
v -8.605479 -0.873298 -0.234462
v -8.605479 -0.908163 -0.119528
v -8.605479 -0.919936 0.000000
v -8.605479 -0.908163 0.119528
v -8.605479 -0.873298 0.234462
v -8.605479 -0.816680 0.340387
v -8.605479 -0.740486 0.433230
v -8.605479 -0.647642 0.509425
v -8.605479 -0.541718 0.566043
v -8.605479 -0.426783 0.600908
v -8.605479 -0.307256 0.612680
v -8.605479 -0.187728 0.600908
v -8.605479 -0.072793 0.566043
v -8.605479 0.033131 0.509425
v -8.605479 0.125975 0.433230
v -8.605479 0.202169 0.340387
v -8.605479 0.258787 0.234462
v -8.605479 0.293652 0.119528
v -8.605479 0.305424 0.000000
v -8.605479 0.293652 -0.119528
v -8.605479 0.258787 -0.234462
v -8.605479 0.202169 -0.340387
v -8.605479 0.125975 -0.433230
v -8.605479 0.033131 -0.509425
v -8.605479 -0.072793 -0.566043
v -8.605479 -0.187728 -0.600908
v -9.025991 -0.307857 -0.298044
v -9.025991 -0.366002 -0.292318
v -9.025991 -0.421913 -0.275357
v -9.025991 -0.473441 -0.247815
v -9.025991 -0.518606 -0.210749
v -9.025991 -0.555672 -0.165585
v -9.025991 -0.583214 -0.114057
v -9.025991 -0.600174 -0.058146
v -9.025991 -0.605901 0.000000
v -9.025991 -0.600174 0.058146
v -9.025991 -0.583214 0.114057
v -9.025991 -0.555672 0.165585
v -9.025991 -0.518606 0.210749
v -9.025991 -0.473441 0.247815
v -9.025991 -0.421913 0.275357
v -9.025991 -0.366002 0.292318
v -9.025991 -0.307857 0.298044
v -9.025991 -0.249711 0.292318
v -9.025991 -0.193800 0.275357
v -9.025991 -0.142272 0.247815
v -9.025991 -0.097107 0.210749
v -9.025991 -0.060042 0.165585
v -9.025991 -0.032500 0.114057
v -9.025991 -0.015539 0.058146
v -9.025991 -0.009812 0.000000
v -9.025991 -0.015539 -0.058146
v -9.025991 -0.032500 -0.114057
v -9.025991 -0.060042 -0.165585
v -9.025991 -0.097107 -0.210749
v -9.025991 -0.142272 -0.247815
v -9.025991 -0.193800 -0.275357
v -9.025991 -0.249711 -0.292318
v -9.269267 -0.307857 -0.131078
v -9.269267 -0.333429 -0.128559
v -9.269267 -0.358018 -0.121100
v -9.269267 -0.380680 -0.108987
v -9.269267 -0.400543 -0.092686
v -9.269267 -0.416844 -0.072823
v -9.269267 -0.428957 -0.050161
v -9.269267 -0.436416 -0.025572
v -9.269267 -0.438934 0.000000
v -9.269267 -0.436416 0.025572
v -9.269267 -0.428957 0.050161
v -9.269267 -0.416844 0.072823
v -9.269267 -0.400543 0.092686
v -9.269267 -0.380680 0.108987
v -9.269267 -0.358018 0.121100
v -9.269267 -0.333429 0.128559
v -9.269267 -0.307857 0.131078
v -9.269267 -0.282285 0.128559
v -9.269267 -0.257695 0.121100
v -9.269267 -0.235034 0.108987
v -9.269267 -0.215171 0.092686
v -9.269267 -0.198870 0.072823
v -9.269267 -0.186757 0.050161
v -9.269267 -0.179298 0.025572
v -9.269267 -0.176779 0.000000
v -9.269267 -0.179298 -0.025572
v -9.269267 -0.186757 -0.050161
v -9.269267 -0.198870 -0.072823
v -9.269267 -0.215171 -0.092686
v -9.269267 -0.235034 -0.108987
v -9.269267 -0.257695 -0.121100
v -9.269267 -0.282285 -0.128559
v -5.847153 -0.242269 0.666822
v -5.847153 -0.242269 0.968075
v -5.847153 -0.242269 0.339943
v -5.847153 -0.242269 -0.000000
v -5.847153 -0.242269 -0.339943
v -5.847153 -0.242269 -0.666822
v -5.847153 -0.242269 -0.968075
v -6.558497 -0.150981 0.532685
v -6.558497 -0.150981 0.773338
v -6.558497 -0.150981 0.271560
v -6.558497 -0.150981 -0.000000
v -6.558497 -0.150981 -0.271560
v -6.558497 -0.150981 -0.532685
v -6.558497 -0.150981 -0.773338
v -7.191898 -0.117952 0.389255
v -7.191898 -0.117952 0.565110
v -7.191898 -0.117952 0.198440
v -7.191898 -0.117952 0.000000
v -7.191898 -0.117952 -0.198440
v -7.191898 -0.117952 -0.389255
v -7.191898 -0.117952 -0.565110
v -6.585606 1.360020 0.666822
v -6.585606 1.446287 0.339943
v -7.302784 0.765495 -0.773338
v -7.823366 0.533204 -0.565110
v -7.798836 0.663043 -0.198440
v -7.302784 0.765495 0.773338
v -6.585606 1.219929 0.968076
v -6.585606 1.475416 -0.000000
v -6.585606 1.446287 -0.339943
v -7.795680 0.679751 0.000000
v -7.798836 0.663043 0.198440
v -2.778210 0.933337 -0.666822
v -2.036840 -0.196625 -0.666822
v -2.778210 1.019604 0.339943
v -2.036840 -0.196625 0.339943
v -2.778210 0.793247 0.968076
v -2.036840 -0.196625 0.968076
v -2.778210 1.019604 -0.339943
v -2.036840 -0.196625 -0.339943
v -2.036840 -0.196625 0.666822
v -2.036840 -0.196625 -0.000000
v -2.036840 -0.196625 -0.968076
v -2.778210 0.793247 -0.968076
v -2.778210 0.933337 0.666822
v -2.778210 1.048733 -0.000000
vn 0.2223 -0.0956 -0.9703
vn 0.2415 -0.2817 -0.9286
vn 0.2592 -0.4553 -0.8518
vn 0.2750 -0.6099 -0.7432
vn 0.2883 -0.7402 -0.6075
vn 0.2986 -0.8417 -0.4499
vn 0.3056 -0.9112 -0.2764
vn 0.3092 -0.9464 -0.0932
vn 0.3092 -0.9464 0.0932
vn 0.3056 -0.9112 0.2764
vn 0.2986 -0.8417 0.4499
vn 0.2883 -0.7402 0.6075
vn 0.2750 -0.6099 0.7432
vn 0.2592 -0.4553 0.8518
vn 0.2415 -0.2817 0.9286
vn 0.2223 -0.0956 0.9703
vn 0.2025 0.0960 0.9746
vn 0.1829 0.2854 0.9408
vn 0.1641 0.4650 0.8700
vn 0.1471 0.6275 0.7646
vn 0.1326 0.7662 0.6288
vn 0.1211 0.8754 0.4679
vn 0.1131 0.9508 0.2884
vn 0.1090 0.9893 0.0974
vn 0.1090 0.9893 -0.0974
vn 0.1131 0.9508 -0.2884
vn 0.1211 0.8754 -0.4679
vn 0.1326 0.7662 -0.6288
vn 0.1471 0.6275 -0.7646
vn 0.1641 0.4650 -0.8700
vn 0.1829 0.2854 -0.9408
vn 0.2025 0.0960 -0.9746
vn 1.0000 -0.0000 -0.0000
vn -0.3603 -0.0914 -0.9283
vn -0.3495 -0.2720 -0.8966
vn -0.3391 -0.4435 -0.8297
vn -0.3296 -0.5989 -0.7298
vn -0.3215 -0.7320 -0.6007
vn -0.3150 -0.8370 -0.4474
vn -0.3106 -0.9096 -0.2759
vn -0.3083 -0.9467 -0.0932
vn -0.3083 -0.9467 0.0932
vn -0.3106 -0.9096 0.2759
vn -0.3150 -0.8370 0.4474
vn -0.3215 -0.7320 0.6007
vn -0.3296 -0.5989 0.7298
vn -0.3391 -0.4435 0.8297
vn -0.3495 -0.2720 0.8966
vn -0.3603 -0.0914 0.9283
vn -0.3713 0.0910 0.9240
vn -0.3819 0.2683 0.8844
vn -0.3918 0.4337 0.8114
vn -0.4005 0.5813 0.7083
vn -0.4079 0.7058 0.5792
vn -0.4136 0.8030 0.4292
vn -0.4175 0.8695 0.2638
vn -0.4195 0.9034 0.0890
vn -0.4195 0.9034 -0.0890
vn -0.4175 0.8695 -0.2638
vn -0.4136 0.8030 -0.4292
vn -0.4079 0.7058 -0.5792
vn -0.4005 0.5813 -0.7083
vn -0.3918 0.4337 -0.8114
vn -0.3819 0.2683 -0.8844
vn -0.3713 0.0910 -0.9240
vn 0.0185 -0.0980 -0.9950
vn -0.3173 -0.4470 -0.8363
vn 0.0166 0.0980 -0.9950
vn 0.0204 -0.2902 -0.9567
vn 0.0222 -0.4713 -0.8817
vn 0.0238 -0.6342 -0.7728
vn 0.0252 -0.7728 -0.6342
vn 0.0262 -0.8816 -0.4712
vn 0.0270 -0.9566 -0.2902
vn 0.0274 -0.9948 -0.0980
vn 0.0274 -0.9948 0.0980
vn 0.0270 -0.9566 0.2902
vn 0.0262 -0.8816 0.4712
vn 0.0252 -0.7728 0.6342
vn 0.0238 -0.6342 0.7728
vn 0.0222 -0.4713 0.8817
vn 0.0204 -0.2902 0.9567
vn 0.0185 -0.0980 0.9950
vn 0.0166 0.0980 0.9950
vn 0.0147 0.2903 0.9568
vn 0.0129 0.4714 0.8818
vn 0.0113 0.6344 0.7730
vn 0.0100 0.7730 0.6344
vn 0.0089 0.8819 0.4714
vn 0.0082 0.9569 0.2903
vn 0.0078 0.9952 0.0980
vn 0.0078 0.9952 -0.0980
vn 0.0082 0.9569 -0.2903
vn 0.0089 0.8819 -0.4714
vn 0.0100 0.7730 -0.6344
vn 0.0113 0.6344 -0.7730
vn 0.0129 0.4714 -0.8818
vn 0.0147 0.2903 -0.9568
vn -0.5232 0.2474 0.8155
vn -0.2311 -0.7521 0.6172
vn -0.5924 0.6228 0.5111
vn -0.5380 0.3974 -0.7434
vn -0.1638 -0.9818 -0.0967
vn -0.4599 0.0870 0.8837
vn -0.0000 -0.0000 1.0000
vn -0.2715 -0.6106 -0.7440
vn -0.2715 -0.6106 0.7440
vn 0.2893 0.2539 -0.9230
vn -0.5016 0.2511 -0.8278
vn -0.1638 -0.9818 0.0967
vn -0.5016 0.2511 0.8278
vn -0.1011 -0.9021 -0.4195
vn -0.4599 0.0870 -0.8837
vn -0.2311 -0.7521 -0.6172
vn -0.3173 -0.4470 0.8363
vn 0.7300 0.6588 -0.1820
vn -0.4140 -0.0892 -0.9059
vn -0.1755 -0.9421 0.2858
vn -0.5380 0.3974 0.7434
vn -0.5924 0.6228 -0.5111
vn -0.1984 -0.8644 -0.4620
vn -0.3657 -0.2702 0.8906
vn 0.7736 0.6257 -0.1001
vn -0.3657 -0.2702 -0.8906
vn -0.1984 -0.8644 0.4620
vn -0.5683 0.5220 0.6361
vn -0.5683 0.5220 -0.6361
vn -0.1755 -0.9421 -0.2858
vn -0.4140 -0.0892 0.9059
vn 0.2268 0.1414 0.9636
vn -0.5839 0.7769 -0.2357
vn -0.4902 -0.6737 -0.5529
vn -0.5174 0.0839 -0.8516
vn -0.5286 0.4002 0.7487
vn -0.4867 -0.7704 -0.4118
vn -0.5334 0.5366 0.6539
vn -0.4843 -0.8372 -0.2540
vn -0.5374 0.6519 0.5350
vn -0.4831 -0.8714 -0.0858
vn -0.1077 -0.9613 -0.2537
vn -0.4831 -0.8714 0.0858
vn 0.2893 0.2539 0.9230
vn -0.4843 -0.8372 0.2540
vn 0.7931 0.6082 -0.0319
vn -0.4867 -0.7704 0.4118
vn 0.2268 0.1414 -0.9636
vn -0.4902 -0.6737 0.5529
vn -0.0120 0.9999 -0.0000
vn -0.4947 -0.5513 0.6718
vn 0.7931 0.6082 0.0319
vn -0.4998 -0.4083 0.7639
vn -0.5114 -0.0842 -0.8552
vn -0.5374 0.6519 -0.5350
vn -0.5055 -0.2505 0.8257
vn -0.5055 -0.2505 -0.8257
vn -0.5334 0.5366 -0.6539
vn -0.5114 -0.0842 0.8552
vn -0.4998 -0.4083 -0.7639
vn -0.5286 0.4002 -0.7487
vn -0.5174 0.0839 0.8516
vn -0.4947 -0.5513 -0.6718
vn -0.5232 0.2474 -0.8155
vn -0.5979 0.7069 -0.3779
vn -0.5720 -0.5204 0.6340
vn -0.5833 0.7163 -0.3829
vn -0.5733 -0.3863 0.7226
vn -0.5761 -0.0801 -0.8135
vn -0.5825 0.6283 -0.5156
vn -0.5746 -0.2376 0.7832
vn -0.5746 -0.2376 -0.7832
vn -0.5815 0.5161 -0.6289
vn -0.5761 -0.0801 0.8135
vn -0.5733 -0.3863 -0.7226
vn -0.5803 0.3839 -0.7182
vn -0.5775 0.0800 0.8124
vn -0.5720 -0.5204 -0.6340
vn -0.5790 0.2367 -0.7802
vn -0.5790 0.2367 0.7802
vn -0.5710 -0.6346 -0.5208
vn -0.5775 0.0800 -0.8124
vn -0.5803 0.3839 0.7182
vn -0.5702 -0.7245 -0.3873
vn -0.5815 0.5161 0.6289
vn -0.5696 -0.7865 -0.2386
vn -0.5825 0.6283 0.5156
vn -0.5693 -0.8182 -0.0806
vn -0.5833 0.7163 0.3829
vn -0.5693 -0.8182 0.0806
vn -0.5839 0.7769 0.2357
vn -0.5696 -0.7865 0.2386
vn -0.5842 0.8077 0.0796
vn -0.5702 -0.7245 0.3873
vn -0.5842 0.8077 -0.0796
vn -0.5710 -0.6346 0.5208
vn -0.5640 -0.7902 -0.2397
vn -0.5969 -0.3782 0.7076
vn -0.5972 -0.0786 -0.7983
vn -0.5978 0.6197 -0.5086
vn -0.5970 -0.2329 0.7677
vn -0.5970 -0.2329 -0.7677
vn -0.5977 0.5086 -0.6197
vn -0.5972 -0.0786 0.7983
vn -0.5969 -0.3782 -0.7076
vn -0.5976 0.3780 -0.7071
vn -0.5973 0.0786 0.7982
vn -0.5968 -0.5090 -0.6203
vn -0.5974 0.2328 -0.7674
vn -0.5974 0.2328 0.7674
vn -0.5967 -0.6203 -0.5091
vn -0.5973 0.0786 -0.7982
vn -0.5976 0.3780 0.7071
vn -0.5966 -0.7078 -0.3783
vn -0.5977 0.5086 0.6197
vn -0.5965 -0.7680 -0.2330
vn -0.5978 0.6197 0.5086
vn -0.5965 -0.7987 -0.0787
vn -0.5979 0.7069 0.3779
vn -0.5965 -0.7987 0.0787
vn -0.5979 0.7670 0.2327
vn -0.5965 -0.7680 0.2330
vn -0.5980 0.7977 0.0786
vn -0.5966 -0.7078 0.3783
vn -0.5980 0.7977 -0.0786
vn -0.5967 -0.6203 0.5091
vn -0.5979 0.7670 -0.2327
vn -0.5968 -0.5090 0.6203
vn -1.0000 -0.0000 -0.0000
vn -0.5640 0.6383 0.5239
vn -0.5640 -0.8218 -0.0809
vn -0.5640 0.7283 0.3893
vn -0.5640 -0.8218 0.0809
vn -0.5640 0.7902 0.2397
vn -0.5640 -0.7902 0.2397
vn -0.5640 0.8218 0.0809
vn -0.5640 -0.7283 0.3893
vn -0.5640 0.8218 -0.0809
vn -0.5640 -0.6383 0.5239
vn -0.5640 0.7902 -0.2397
vn -0.5640 -0.5239 0.6383
vn -0.5640 0.7283 -0.3893
vn -0.5640 -0.3893 0.7283
vn -0.5640 -0.0809 -0.8218
vn -0.5640 0.6383 -0.5239
vn -0.5640 -0.2397 0.7902
vn -0.5640 -0.2397 -0.7902
vn -0.5640 0.5239 -0.6383
vn -0.5640 -0.0809 0.8218
vn -0.5640 -0.3893 -0.7283
vn -0.5640 0.3893 -0.7283
vn -0.5640 0.0809 0.8218
vn -0.5640 -0.5239 -0.6383
vn -0.5640 0.2397 -0.7902
vn -0.5640 0.2397 0.7902
vn -0.5640 -0.6383 -0.5239
vn -0.5640 0.0809 -0.8218
vn -0.5640 0.3893 0.7283
vn -0.5640 -0.7283 -0.3893
vn -0.5640 0.5239 0.6383
vn 0.1273 0.9919 -0.0000
vn 0.0521 0.9986 -0.0000
vn 0.7300 0.6588 0.1820
vn 0.7736 0.6257 0.1001
vn -0.1110 -0.9902 -0.0848
vn -0.8512 -0.4694 0.2346
vn 0.1273 0.9540 0.2715
vn -0.8512 -0.4694 -0.2346
vn 0.0809 0.8916 0.4455
vn 0.1511 0.9843 0.0911
vn -0.8975 -0.4391 0.0404
vn 0.1788 0.1266 -0.9757
vn 0.1511 0.9843 -0.0911
vn 0.1526 0.3632 0.9191
vn -0.8840 -0.4497 -0.1275
vn 0.1788 0.1266 0.9757
vn 0.1273 0.9540 -0.2715
vn 0.0809 0.8916 -0.4455
vn -0.8840 -0.4497 0.1275
vn 0.1526 0.3632 -0.9191
vn -0.8975 -0.4391 -0.0404
vn -0.8564 -0.5158 -0.0221
vn -0.8432 -0.5329 0.0703
vn -0.8432 -0.5329 -0.0703
vn -0.8564 -0.5158 0.0221
vn -0.8123 -0.5681 -0.1321
vn -0.8123 -0.5681 0.1321
vn -0.1110 -0.9902 0.0848
vn -0.1077 -0.9613 0.2537
vn -0.0000 -0.0000 -1.0000
vn -0.1011 -0.9021 0.4195
vt 0.296822 0.485388
vt 0.250000 0.490000
vt 0.250000 0.250349
vt 0.250068 0.250343
vt 0.341844 0.471731
vt 0.250134 0.250323
vt 0.383337 0.449553
vt 0.250194 0.250290
vt 0.419706 0.419706
vt 0.250247 0.250247
vt 0.449553 0.383337
vt 0.250290 0.250194
vt 0.471731 0.341844
vt 0.250323 0.250134
vt 0.485388 0.296822
vt 0.250343 0.250068
vt 0.490000 0.250000
vt 0.250349 0.250000
vt 0.485388 0.203178
vt 0.250343 0.249932
vt 0.471731 0.158156
vt 0.250323 0.249866
vt 0.449553 0.116663
vt 0.250290 0.249806
vt 0.419706 0.080294
vt 0.250247 0.249753
vt 0.383337 0.050447
vt 0.250194 0.249710
vt 0.341844 0.028269
vt 0.250134 0.249677
vt 0.296822 0.014612
vt 0.250068 0.249657
vt 0.250000 0.010000
vt 0.250000 0.249651
vt 0.203178 0.014612
vt 0.249932 0.249657
vt 0.158156 0.028269
vt 0.249866 0.249677
vt 0.116663 0.050447
vt 0.249806 0.249710
vt 0.080294 0.080294
vt 0.249753 0.249753
vt 0.050447 0.116663
vt 0.249710 0.249806
vt 0.028269 0.158156
vt 0.249677 0.249866
vt 0.014612 0.203178
vt 0.249657 0.249932
vt 0.010000 0.250000
vt 0.249651 0.250000
vt 0.014612 0.296822
vt 0.249657 0.250068
vt 0.028269 0.341844
vt 0.249677 0.250134
vt 0.050447 0.383337
vt 0.249710 0.250194
vt 0.080294 0.419706
vt 0.249753 0.250247
vt 0.116663 0.449553
vt 0.249806 0.250290
vt 0.158156 0.471731
vt 0.249866 0.250323
vt 0.203178 0.485388
vt 0.249932 0.250343
vt 0.750000 0.490000
vt 0.796822 0.485388
vt 0.791431 0.458290
vt 0.750000 0.462371
vt 0.841844 0.471731
vt 0.831271 0.446205
vt 0.883337 0.449553
vt 0.867987 0.426580
vt 0.919706 0.419706
vt 0.900169 0.400169
vt 0.949553 0.383337
vt 0.926580 0.367987
vt 0.971731 0.341844
vt 0.946205 0.331271
vt 0.985388 0.296822
vt 0.958290 0.291431
vt 0.990000 0.250000
vt 0.962371 0.250000
vt 0.985388 0.203178
vt 0.958290 0.208569
vt 0.971731 0.158156
vt 0.946205 0.168729
vt 0.949553 0.116663
vt 0.926580 0.132013
vt 0.919706 0.080294
vt 0.900169 0.099831
vt 0.883337 0.050447
vt 0.867987 0.073420
vt 0.841844 0.028269
vt 0.831271 0.053795
vt 0.796822 0.014612
vt 0.791431 0.041710
vt 0.750000 0.010000
vt 0.750000 0.037629
vt 0.703178 0.014612
vt 0.708568 0.041710
vt 0.658156 0.028269
vt 0.668729 0.053795
vt 0.616663 0.050447
vt 0.632013 0.073420
vt 0.580294 0.080294
vt 0.599831 0.099831
vt 0.550447 0.116663
vt 0.573420 0.132013
vt 0.528269 0.158156
vt 0.553795 0.168729
vt 0.514612 0.203178
vt 0.541710 0.208569
vt 0.510000 0.250000
vt 0.537629 0.250000
vt 0.514612 0.296822
vt 0.541710 0.291431
vt 0.528269 0.341844
vt 0.553795 0.331271
vt 0.550447 0.383337
vt 0.573420 0.367987
vt 0.580294 0.419706
vt 0.599831 0.400169
vt 0.616663 0.449553
vt 0.632013 0.426580
vt 0.658156 0.471731
vt 0.668729 0.446205
vt 0.703178 0.485388
vt 0.708569 0.458290
vt 1.000000 0.517885
vt 1.000000 0.751566
vt 0.968750 0.751566
vt 0.968750 0.517885
vt 0.031250 0.517884
vt 0.031250 0.751566
vt 0.000000 0.751566
vt 0.000000 0.517885
vt 0.937500 0.751566
vt 0.937500 0.517885
vt 0.906250 0.751566
vt 0.906250 0.517884
vt 0.875000 0.751566
vt 0.875000 0.517885
vt 0.843750 0.751566
vt 0.843750 0.517884
vt 0.812500 0.751566
vt 0.812500 0.517885
vt 0.781250 0.751566
vt 0.781250 0.517885
vt 0.750000 0.751566
vt 0.750000 0.517885
vt 0.718750 0.751566
vt 0.718750 0.517885
vt 0.687500 0.751566
vt 0.687500 0.517885
vt 0.656250 0.751566
vt 0.656250 0.517885
vt 0.625000 0.751566
vt 0.625000 0.517885
vt 0.593750 0.751566
vt 0.593750 0.517885
vt 0.562500 0.751566
vt 0.562500 0.517885
vt 0.531250 0.751566
vt 0.531250 0.517885
vt 0.500000 0.751566
vt 0.500000 0.517885
vt 0.468750 0.751566
vt 0.468750 0.517885
vt 0.437500 0.751566
vt 0.437500 0.517885
vt 0.406250 0.751566
vt 0.406250 0.517884
vt 0.375000 0.751566
vt 0.375000 0.517885
vt 0.343750 0.751566
vt 0.343750 0.517885
vt 0.312500 0.751566
vt 0.312500 0.517885
vt 0.281250 0.751566
vt 0.281250 0.517884
vt 0.250000 0.751566
vt 0.250000 0.517885
vt 0.218750 0.751566
vt 0.218750 0.517884
vt 0.187500 0.751566
vt 0.187500 0.517885
vt 0.156250 0.751566
vt 0.156250 0.517885
vt 0.125000 0.751566
vt 0.125000 0.517885
vt 0.093750 0.751566
vt 0.093750 0.517884
vt 0.062500 0.751566
vt 0.062500 0.517885
vt 0.573420 0.132013
vt 0.573420 0.132013
vt 0.553795 0.331271
vt 0.573420 0.367987
vt 0.541710 0.208569
vt 0.537629 0.250000
vt 0.541710 0.291431
s 0
f 4/1/1 2/2/1 1/3/1 3/4/1
f 6/5/2 4/1/2 3/4/2 5/6/2
f 8/7/3 6/5/3 5/6/3 7/8/3
f 10/9/4 8/7/4 7/8/4 9/10/4
f 12/11/5 10/9/5 9/10/5 11/12/5
f 14/13/6 12/11/6 11/12/6 13/14/6
f 16/15/7 14/13/7 13/14/7 15/16/7
f 18/17/8 16/15/8 15/16/8 17/18/8
f 20/19/9 18/17/9 17/18/9 19/20/9
f 22/21/10 20/19/10 19/20/10 21/22/10
f 24/23/11 22/21/11 21/22/11 23/24/11
f 26/25/12 24/23/12 23/24/12 25/26/12
f 28/27/13 26/25/13 25/26/13 27/28/13
f 30/29/14 28/27/14 27/28/14 29/30/14
f 32/31/15 30/29/15 29/30/15 31/32/15
f 34/33/16 32/31/16 31/32/16 33/34/16
f 36/35/17 34/33/17 33/34/17 35/36/17
f 38/37/18 36/35/18 35/36/18 37/38/18
f 40/39/19 38/37/19 37/38/19 39/40/19
f 42/41/20 40/39/20 39/40/20 41/42/20
f 44/43/21 42/41/21 41/42/21 43/44/21
f 46/45/22 44/43/22 43/44/22 45/46/22
f 48/47/23 46/45/23 45/46/23 47/48/23
f 50/49/24 48/47/24 47/48/24 49/50/24
f 52/51/25 50/49/25 49/50/25 51/52/25
f 54/53/26 52/51/26 51/52/26 53/54/26
f 56/55/27 54/53/27 53/54/27 55/56/27
f 58/57/28 56/55/28 55/56/28 57/58/28
f 60/59/29 58/57/29 57/58/29 59/60/29
f 62/61/30 60/59/30 59/60/30 61/62/30
f 64/63/31 62/61/31 61/62/31 63/64/31
f 2/2/32 64/63/32 63/64/32 1/3/32
f 3/4/33 1/3/33 63/64/33 61/62/33 59/60/33 57/58/33 55/56/33 53/54/33 51/52/33 49/50/33 47/48/33 45/46/33 43/44/33 41/42/33 39/40/33 37/38/33 35/36/33 33/34/33 31/32/33 29/30/33 27/28/33 25/26/33 23/24/33 21/22/33 19/20/33 17/18/33 15/16/33 13/14/33 11/12/33 9/10/33 7/8/33 5/6/33
f 66/65/34 67/66/34 68/67/34 65/68/34
f 67/66/35 69/69/35 70/70/35 68/67/35
f 69/69/36 71/71/36 72/72/36 70/70/36
f 71/71/37 73/73/37 74/74/37 72/72/37
f 73/73/38 75/75/38 76/76/38 74/74/38
f 75/75/39 77/77/39 78/78/39 76/76/39
f 77/77/40 79/79/40 80/80/40 78/78/40
f 79/79/41 81/81/41 82/82/41 80/80/41
f 81/81/42 83/83/42 84/84/42 82/82/42
f 83/83/43 85/85/43 86/86/43 84/84/43
f 85/85/44 87/87/44 88/88/44 86/86/44
f 87/87/45 89/89/45 90/90/45 88/88/45
f 89/89/46 91/91/46 92/92/46 90/90/46
f 91/91/47 93/93/47 94/94/47 92/92/47
f 93/93/48 95/95/48 96/96/48 94/94/48
f 95/95/49 97/97/49 98/98/49 96/96/49
f 97/97/50 99/99/50 100/100/50 98/98/50
f 99/99/51 101/101/51 102/102/51 100/100/51
f 101/101/52 103/103/52 104/104/52 102/102/52
f 103/103/53 105/105/53 106/106/53 104/104/53
f 105/105/54 107/107/54 108/108/54 106/106/54
f 107/107/55 109/109/55 110/110/55 108/108/55
f 109/109/56 111/111/56 112/112/56 110/110/56
f 111/111/57 113/113/57 114/114/57 112/112/57
f 113/113/58 115/115/58 116/116/58 114/114/58
f 115/115/59 117/117/59 118/118/59 116/116/59
f 117/117/60 119/119/60 120/120/60 118/118/60
f 119/119/61 121/121/61 122/122/61 120/120/61
f 121/121/62 123/123/62 124/124/62 122/122/62
f 123/123/63 125/125/63 126/126/63 124/124/63
f 125/125/64 127/127/64 128/128/64 126/126/64
f 127/127/65 66/65/65 65/68/65 128/128/65
f 66/129/66 2/130/66 4/131/66 67/132/66
f 70/70/67 72/72/67 132/72/67 131/70/67
f 127/133/68 64/134/68 2/135/68 66/136/68
f 67/132/69 4/131/69 6/137/69 69/138/69
f 69/138/70 6/137/70 8/139/70 71/140/70
f 71/140/71 8/139/71 10/141/71 73/142/71
f 73/142/72 10/141/72 12/143/72 75/144/72
f 75/144/73 12/143/73 14/145/73 77/146/73
f 77/146/74 14/145/74 16/147/74 79/148/74
f 79/148/75 16/147/75 18/149/75 81/150/75
f 81/150/76 18/149/76 20/151/76 83/152/76
f 83/152/77 20/151/77 22/153/77 85/154/77
f 85/154/78 22/153/78 24/155/78 87/156/78
f 87/156/79 24/155/79 26/157/79 89/158/79
f 89/158/80 26/157/80 28/159/80 91/160/80
f 91/160/81 28/159/81 30/161/81 93/162/81
f 93/162/82 30/161/82 32/163/82 95/164/82
f 95/164/83 32/163/83 34/165/83 97/166/83
f 97/166/84 34/165/84 36/167/84 99/168/84
f 99/168/85 36/167/85 38/169/85 101/170/85
f 101/170/86 38/169/86 40/171/86 103/172/86
f 103/172/87 40/171/87 42/173/87 105/174/87
f 105/174/88 42/173/88 44/175/88 107/176/88
f 107/176/89 44/175/89 46/177/89 109/178/89
f 109/178/90 46/177/90 48/179/90 111/180/90
f 111/180/91 48/179/91 50/181/91 113/182/91
f 113/182/92 50/181/92 52/183/92 115/184/92
f 115/184/93 52/183/93 54/185/93 117/186/93
f 117/186/94 54/185/94 56/187/94 119/188/94
f 119/188/95 56/187/95 58/189/95 121/190/95
f 121/190/96 58/189/96 60/191/96 123/192/96
f 123/192/97 60/191/97 62/193/97 125/194/97
f 125/194/98 62/193/98 64/134/98 127/133/98
f 146/100/99 147/102/99 179/102/99 178/100/99
f 88/88/100 90/90/100 141/90/100 140/88/100
f 106/106/101 108/108/101 150/108/101 149/106/101
f 124/124/102 126/126/102 159/126/102 158/124/102
f 80/80/103 82/82/103 137/82/103 136/80/103
f 98/98/104 100/100/104 146/100/104 145/98/104
f 151/120/105 295/120/105 331/120/105 332/120/105
f 72/72/106 74/74/106 133/74/106 132/72/106
f 90/90/107 92/92/107 142/92/107 141/90/107
f 154/195/108 315/196/108 297/108/108 304/108/108
f 126/126/109 128/128/109 160/128/109 159/126/109
f 82/82/110 84/84/110 138/84/110 137/82/110
f 100/100/111 102/102/111 147/102/111 146/100/111
f 316/196/112 310/110/112 333/110/112 325/196/112
f 128/128/113 65/68/113 129/68/113 160/128/113
f 74/74/114 76/76/114 134/76/114 133/74/114
f 92/92/115 94/94/115 143/94/115 142/92/115
f 313/120/116 152/197/116 308/118/116 309/120/116
f 65/68/117 68/67/117 130/67/117 129/68/117
f 84/84/118 86/86/118 139/86/118 138/84/118
f 102/102/119 104/104/119 148/104/119 147/102/119
f 120/120/120 122/122/120 157/122/120 156/120/120
f 76/76/121 78/78/121 135/78/121 134/76/121
f 94/94/122 96/96/122 144/96/122 143/94/122
f 152/197/123 314/116/123 307/116/123 308/118/123
f 68/67/124 70/70/124 131/70/124 130/67/124
f 86/86/125 88/88/125 140/88/125 139/86/125
f 104/104/126 106/106/126 149/106/126 148/104/126
f 122/122/127 124/124/127 158/124/127 157/122/127
f 78/78/128 80/80/128 136/80/128 135/78/128
f 96/96/129 98/98/129 145/98/129 144/96/129
f 151/120/130 312/198/130 302/120/130 295/120/130
f 186/116/131 187/118/131 219/118/131 218/116/131
f 133/74/132 134/76/132 166/76/132 165/74/132
f 160/128/133 129/68/133 161/68/133 192/128/133
f 147/102/134 148/104/134 180/104/134 179/102/134
f 134/76/135 135/78/135 167/78/135 166/76/135
f 148/104/136 149/106/136 181/106/136 180/104/136
f 135/78/137 136/80/137 168/80/137 167/78/137
f 149/106/138 150/108/138 182/108/138 181/106/138
f 136/80/139 137/82/139 169/82/139 168/80/139
f 310/110/140 311/199/140 323/199/140 333/110/140
f 137/82/141 138/84/141 170/84/141 169/82/141
f 312/198/142 313/120/142 309/120/142 302/120/142
f 138/84/143 139/86/143 171/86/143 170/84/143
f 314/116/144 319/200/144 306/114/144 307/116/144
f 139/86/145 140/88/145 172/88/145 171/86/145
f 315/196/146 316/196/146 290/108/146 297/108/146
f 140/88/147 141/90/147 173/90/147 172/88/147
f 295/120/148 294/118/148 322/118/148 331/120/148
f 141/90/149 142/92/149 174/92/149 173/90/149
f 319/200/150 320/112/150 305/112/150 306/114/150
f 142/92/151 143/94/151 175/94/151 174/92/151
f 129/68/152 130/67/152 162/67/152 161/68/152
f 156/120/153 157/122/153 189/122/153 188/120/153
f 143/94/154 144/96/154 176/96/154 175/94/154
f 130/67/155 131/70/155 163/70/155 162/67/155
f 157/122/156 158/124/156 190/124/156 189/122/156
f 144/96/157 145/98/157 177/98/157 176/96/157
f 131/70/158 132/72/158 164/72/158 163/70/158
f 158/124/159 159/126/159 191/126/159 190/124/159
f 145/98/160 146/100/160 178/100/160 177/98/160
f 132/72/161 133/74/161 165/74/161 164/72/161
f 159/126/162 160/128/162 192/128/162 191/126/162
f 219/118/163 220/120/163 252/120/163 251/118/163
f 173/90/164 174/92/164 206/92/164 205/90/164
f 187/118/165 188/120/165 220/120/165 219/118/165
f 174/92/166 175/94/166 207/94/166 206/92/166
f 161/68/167 162/67/167 194/67/167 193/68/167
f 188/120/168 189/122/168 221/122/168 220/120/168
f 175/94/169 176/96/169 208/96/169 207/94/169
f 162/67/170 163/70/170 195/70/170 194/67/170
f 189/122/171 190/124/171 222/124/171 221/122/171
f 176/96/172 177/98/172 209/98/172 208/96/172
f 163/70/173 164/72/173 196/72/173 195/70/173
f 190/124/174 191/126/174 223/126/174 222/124/174
f 177/98/175 178/100/175 210/100/175 209/98/175
f 164/72/176 165/74/176 197/74/176 196/72/176
f 191/126/177 192/128/177 224/128/177 223/126/177
f 178/100/178 179/102/178 211/102/178 210/100/178
f 165/74/179 166/76/179 198/76/179 197/74/179
f 192/128/180 161/68/180 193/68/180 224/128/180
f 179/102/181 180/104/181 212/104/181 211/102/181
f 166/76/182 167/78/182 199/78/182 198/76/182
f 180/104/183 181/106/183 213/106/183 212/104/183
f 167/78/184 168/80/184 200/80/184 199/78/184
f 181/106/185 182/108/185 214/108/185 213/106/185
f 168/80/186 169/82/186 201/82/186 200/80/186
f 182/108/187 183/110/187 215/110/187 214/108/187
f 169/82/188 170/84/188 202/84/188 201/82/188
f 183/110/189 184/112/189 216/112/189 215/110/189
f 170/84/190 171/86/190 203/86/190 202/84/190
f 184/112/191 185/114/191 217/114/191 216/112/191
f 171/86/192 172/88/192 204/88/192 203/86/192
f 185/114/193 186/116/193 218/116/193 217/114/193
f 172/88/194 173/90/194 205/90/194 204/88/194
f 231/78/195 232/80/195 264/80/195 263/78/195
f 206/92/196 207/94/196 239/94/196 238/92/196
f 193/68/197 194/67/197 226/67/197 225/68/197
f 220/120/198 221/122/198 253/122/198 252/120/198
f 207/94/199 208/96/199 240/96/199 239/94/199
f 194/67/200 195/70/200 227/70/200 226/67/200
f 221/122/201 222/124/201 254/124/201 253/122/201
f 208/96/202 209/98/202 241/98/202 240/96/202
f 195/70/203 196/72/203 228/72/203 227/70/203
f 222/124/204 223/126/204 255/126/204 254/124/204
f 209/98/205 210/100/205 242/100/205 241/98/205
f 196/72/206 197/74/206 229/74/206 228/72/206
f 223/126/207 224/128/207 256/128/207 255/126/207
f 210/100/208 211/102/208 243/102/208 242/100/208
f 197/74/209 198/76/209 230/76/209 229/74/209
f 224/128/210 193/68/210 225/68/210 256/128/210
f 211/102/211 212/104/211 244/104/211 243/102/211
f 198/76/212 199/78/212 231/78/212 230/76/212
f 212/104/213 213/106/213 245/106/213 244/104/213
f 199/78/214 200/80/214 232/80/214 231/78/214
f 213/106/215 214/108/215 246/108/215 245/106/215
f 200/80/216 201/82/216 233/82/216 232/80/216
f 214/108/217 215/110/217 247/110/217 246/108/217
f 201/82/218 202/84/218 234/84/218 233/82/218
f 215/110/219 216/112/219 248/112/219 247/110/219
f 202/84/220 203/86/220 235/86/220 234/84/220
f 216/112/221 217/114/221 249/114/221 248/112/221
f 203/86/222 204/88/222 236/88/222 235/86/222
f 217/114/223 218/116/223 250/116/223 249/114/223
f 204/88/224 205/90/224 237/90/224 236/88/224
f 218/116/225 219/118/225 251/118/225 250/116/225
f 205/90/226 206/92/226 238/92/226 237/90/226
f 257/68/227 258/67/227 259/70/227 260/72/227 261/74/227 262/76/227 263/78/227 264/80/227 265/82/227 266/84/227 267/86/227 268/88/227 269/90/227 270/92/227 271/94/227 272/96/227 273/98/227 274/100/227 275/102/227 276/104/227 277/106/227 278/108/227 279/110/227 280/112/227 281/114/227 282/116/227 283/118/227 284/120/227 285/122/227 286/124/227 287/126/227 288/128/227
f 245/106/228 246/108/228 278/108/228 277/106/228
f 232/80/229 233/82/229 265/82/229 264/80/229
f 246/108/230 247/110/230 279/110/230 278/108/230
f 233/82/231 234/84/231 266/84/231 265/82/231
f 247/110/232 248/112/232 280/112/232 279/110/232
f 234/84/233 235/86/233 267/86/233 266/84/233
f 248/112/234 249/114/234 281/114/234 280/112/234
f 235/86/235 236/88/235 268/88/235 267/86/235
f 249/114/236 250/116/236 282/116/236 281/114/236
f 236/88/237 237/90/237 269/90/237 268/88/237
f 250/116/238 251/118/238 283/118/238 282/116/238
f 237/90/239 238/92/239 270/92/239 269/90/239
f 251/118/240 252/120/240 284/120/240 283/118/240
f 238/92/241 239/94/241 271/94/241 270/92/241
f 225/68/242 226/67/242 258/67/242 257/68/242
f 252/120/243 253/122/243 285/122/243 284/120/243
f 239/94/244 240/96/244 272/96/244 271/94/244
f 226/67/245 227/70/245 259/70/245 258/67/245
f 253/122/246 254/124/246 286/124/246 285/122/246
f 240/96/247 241/98/247 273/98/247 272/96/247
f 227/70/248 228/72/248 260/72/248 259/70/248
f 254/124/249 255/126/249 287/126/249 286/124/249
f 241/98/250 242/100/250 274/100/250 273/98/250
f 228/72/251 229/74/251 261/74/251 260/72/251
f 255/126/252 256/128/252 288/128/252 287/126/252
f 242/100/253 243/102/253 275/102/253 274/100/253
f 229/74/254 230/76/254 262/76/254 261/74/254
f 256/128/255 225/68/255 257/68/255 288/128/255
f 243/102/256 244/104/256 276/104/256 275/102/256
f 230/76/257 231/78/257 263/78/257 262/76/257
f 244/104/258 245/106/258 277/106/258 276/104/258
f 293/116/259 294/118/259 301/118/259 300/116/259
f 290/108/259 289/110/259 296/110/259 297/108/259
f 294/118/259 295/120/259 302/120/259 301/118/259
f 289/110/259 291/112/259 298/112/259 296/110/259
f 291/112/259 292/114/259 299/114/259 298/112/259
f 292/114/259 293/116/259 300/116/259 299/114/259
f 297/108/260 296/110/260 303/110/260 304/108/260
f 296/110/260 298/112/260 305/112/260 303/110/260
f 298/112/260 299/114/260 306/114/260 305/112/260
f 299/114/260 300/116/260 307/116/260 306/114/260
f 300/116/260 301/118/260 308/118/260 307/116/260
f 301/118/260 302/120/260 309/120/260 308/118/260
f 155/110/261 154/195/261 304/108/261 303/110/261
f 294/118/148 293/116/148 328/116/148 322/118/148
f 320/112/262 155/110/262 303/110/262 305/112/262
f 311/199/263 317/114/263 334/114/263 323/199/263
f 118/118/264 120/120/264 151/120/264 153/118/264
f 184/112/265 183/110/265 155/110/265 320/112/265
f 108/108/266 110/110/266 310/110/266 316/196/266
f 183/110/267 182/108/267 154/195/267 155/110/267
f 185/114/268 184/112/268 320/112/268 319/200/268
f 114/114/269 116/116/269 318/201/269 317/114/269
f 150/108/270 108/108/270 316/196/270 315/196/270
f 186/116/271 185/114/271 319/200/271 314/116/271
f 156/120/272 188/120/272 313/120/272 312/198/272
f 110/110/273 112/112/273 311/199/273 310/110/273
f 120/120/274 156/120/274 312/198/274 151/120/274
f 187/118/275 186/116/275 314/116/275 152/197/275
f 188/120/276 187/118/276 152/197/276 313/120/276
f 116/116/277 118/118/277 153/118/277 318/201/277
f 182/108/278 150/108/278 315/196/278 154/195/278
f 112/112/279 114/114/279 317/114/279 311/199/279
f 323/199/280 334/114/280 330/114/280 324/112/280
f 327/201/281 321/118/281 322/118/281 328/116/281
f 333/110/282 323/199/282 324/112/282 329/110/282
f 334/114/283 327/201/283 328/116/283 330/114/283
f 325/196/284 333/110/284 329/110/284 326/108/284
f 321/118/285 332/120/285 331/120/285 322/118/285
f 289/110/148 290/108/148 326/108/148 329/110/148
f 291/112/148 289/110/148 329/110/148 324/112/148
f 317/114/286 318/201/286 327/201/286 334/114/286
f 318/201/287 153/118/287 321/118/287 327/201/287
f 292/114/148 291/112/148 324/112/148 330/114/148
f 290/108/288 316/196/288 325/196/288 326/108/288
f 293/116/148 292/114/148 330/114/148 328/116/148
f 153/118/289 151/120/289 332/120/289 321/118/289
o Cube.001
v -2.698376 -0.248374 -1.687916
v -2.698376 0.248374 -1.687916
v -2.017485 -0.248374 -12.232044
v -2.017485 0.248374 -12.232044
v 0.221296 -0.248374 -1.687916
v 0.221296 0.248374 -1.687916
v 0.221296 -0.248374 -12.232044
v 0.221296 0.248374 -12.232044
v -2.698376 -0.248374 -6.959980
v -2.698376 0.000000 -1.687916
v -2.698376 0.248374 -6.959980
v -2.017485 0.000000 -12.232044
v -1.238540 -0.248374 -12.773604
v -1.238540 0.248374 -12.773604
v 0.221296 0.000000 -12.232044
v 0.221296 -0.248374 -6.959980
v 0.221296 0.248374 -6.959980
v 0.221296 0.000000 -1.687916
v -1.238540 -0.248374 -1.687916
v -1.238540 0.248374 -1.687916
v -1.238540 0.248374 -6.959980
v -1.238540 -0.248374 -6.959980
v -1.238540 0.000000 -1.687916
v 0.221296 0.000000 -6.959980
v -1.238540 0.000000 -12.773604
v -2.698376 0.000000 -6.959980
v -2.698376 -0.248374 -4.323948
v -2.698376 0.124187 -1.687916
v -2.698376 0.248374 -9.596012
v -2.017485 -0.124187 -12.232044
v -1.968458 -0.248374 -12.232044
v -0.508622 0.248374 -12.773604
v 0.221296 -0.124187 -12.232044
v 0.221296 -0.248374 -9.596012
v 0.221296 0.248374 -4.323948
v 0.221296 -0.124187 -1.687916
v -0.508622 -0.248374 -1.687916
v -1.968458 0.248374 -1.687916
v -2.698376 -0.248374 -9.596012
v -2.698376 -0.124187 -1.687916
v -2.698376 0.248374 -4.323948
v -2.017485 0.124187 -12.232044
v -0.508622 -0.248374 -12.773604
v -1.968458 0.248374 -12.232044
v 0.221296 0.124187 -12.232044
v 0.221296 -0.248374 -4.323948
v 0.221296 0.248374 -9.596012
v 0.221296 0.124187 -1.687916
v -1.968458 -0.248374 -1.687916
v -0.508622 0.248374 -1.687916
v -1.238540 0.248374 -4.323948
v -1.238540 0.248374 -9.596012
v -0.508622 0.248374 -6.959980
v -1.968458 0.248374 -6.959980
v -1.238540 -0.248374 -4.323948
v -1.238540 -0.248374 -9.596012
v -1.968458 -0.248374 -6.959980
v -0.508622 -0.248374 -6.959980
v -1.968458 0.000000 -1.687916
v -0.508622 0.000000 -1.687916
v -1.238540 -0.124187 -1.687916
v -1.238540 0.124187 -1.687916
v 0.221296 0.000000 -4.323948
v 0.221296 0.000000 -9.596012
v 0.221296 -0.124187 -6.959980
v 0.221296 0.124187 -6.959980
v -0.508622 0.000000 -12.773604
v -1.968458 0.000000 -12.232044
v -1.238540 -0.124187 -12.773604
v -1.238540 0.124187 -12.773604
v -2.698376 0.000000 -9.596012
v -2.698376 0.000000 -4.323948
v -2.698376 -0.124187 -6.959980
v -2.698376 0.124187 -6.959980
v -2.698376 0.124187 -4.323948
v -2.698376 -0.124187 -4.323948
v -2.698376 -0.124187 -9.596012
v -1.968458 0.124187 -12.232044
v -1.968458 -0.124187 -12.232044
v -0.508622 -0.124187 -12.773604
v 0.221296 0.124187 -9.596012
v 0.221296 -0.124187 -9.596012
v 0.221296 -0.124187 -4.323948
v -0.508622 0.124187 -1.687916
v -0.508622 -0.124187 -1.687916
v -1.968458 -0.124187 -1.687916
v -0.508622 -0.248374 -9.596012
v -1.968458 -0.248374 -9.596012
v -1.968458 -0.248374 -4.323948
v -1.968458 0.248374 -9.596012
v -0.508622 0.248374 -9.596012
v -0.508622 0.248374 -4.323948
v -1.968458 0.248374 -4.323948
v -0.508622 -0.248374 -4.323948
v -1.968458 0.124187 -1.687916
v 0.221296 0.124187 -4.323948
v -0.508622 0.124187 -12.773604
v -2.698376 0.124187 -9.596012
v -1.150507 0.248374 -9.215708
v -1.238540 0.248374 -7.224378
v -1.238540 0.248374 -9.207037
v -0.955417 0.248374 -9.196493
v -0.767824 0.248374 -9.139587
v -1.150507 0.248374 -7.215708
v -0.767824 0.248374 -7.291828
v -0.955417 0.248374 -7.234922
v -0.594937 0.248374 -7.384238
v -0.508622 0.248374 -7.455075
v -0.594937 0.248374 -9.047177
v -0.508622 0.248374 -8.976340
v -2.150507 0.248374 -8.215708
v -2.074387 0.248374 -7.833025
v -2.131293 0.248374 -8.020617
v -2.131293 0.248374 -8.410798
v -1.968458 0.248374 -8.787751
v -1.981977 0.248374 -8.771278
v -1.981977 0.248374 -7.660138
v -1.968458 0.248374 -7.643665
v -2.074387 0.248374 -8.598392
v -1.706078 -0.248374 -9.047177
v -1.533191 -0.248374 -9.139587
v -1.238540 -0.248374 -7.224378
v -1.238540 -0.248374 -9.207037
v -1.345598 -0.248374 -9.196493
v -1.857614 -0.248374 -8.922814
v -1.857614 -0.248374 -7.508601
v -1.968458 -0.248374 -7.643665
v -1.968458 -0.248374 -8.787751
v -1.706078 -0.248374 -7.384238
v -1.345598 -0.248374 -7.234922
v -1.533191 -0.248374 -7.291828
v -0.226628 -0.248374 -8.598392
v -0.169722 -0.248374 -8.410798
v -0.443401 -0.248374 -7.508601
v -0.508622 -0.248374 -7.455075
v -0.443401 -0.248374 -8.922814
v -0.508622 -0.248374 -8.976340
v -0.319038 -0.248374 -8.771278
v -0.226628 -0.248374 -7.833025
v -0.150507 -0.248374 -8.215708
v -0.169722 -0.248374 -8.020617
v -0.319038 -0.248374 -7.660138
v -0.767824 -0.248374 -9.139587
v -0.955417 -0.248374 -9.196493
v -0.594937 -0.248374 -7.384238
v -0.594937 -0.248374 -9.047177
v -1.150507 -0.248374 -7.215708
v -1.150507 -0.248374 -9.215708
v -0.955417 -0.248374 -7.234922
v -0.767824 -0.248374 -7.291828
v -2.150507 -0.248374 -8.215708
v -2.131293 -0.248374 -8.020617
v -2.131293 -0.248374 -8.410798
v -1.981977 -0.248374 -7.660138
v -1.981977 -0.248374 -8.771278
v -2.074387 -0.248374 -7.833025
v -2.074387 -0.248374 -8.598392
v -1.857614 0.248374 -7.508601
v -1.857614 0.248374 -8.922814
v -1.706078 0.248374 -9.047177
v -1.533191 0.248374 -9.139587
v -1.533191 0.248374 -7.291828
v -1.706078 0.248374 -7.384238
v -1.345598 0.248374 -7.234922
v -1.345598 0.248374 -9.196493
v -0.443401 0.248374 -8.922814
v -0.443401 0.248374 -7.508601
v -0.169722 0.248374 -8.410798
v -0.226628 0.248374 -8.598392
v -0.319038 0.248374 -8.771278
v -0.319038 0.248374 -7.660138
v -0.226628 0.248374 -7.833025
v -0.150507 0.248374 -8.215708
v -0.169722 0.248374 -8.020617
v 0.221296 0.248374 -9.480617
v 0.221296 -0.248374 -8.219984
v -2.698376 -0.248374 -8.219984
v -2.698376 0.248374 -8.214492
v 0.221296 0.248374 -8.211245
v -2.698376 -0.248374 1.687916
v -2.698376 0.248374 1.687916
v -2.017485 -0.248374 12.232044
v -2.017485 0.248374 12.232044
v 0.221296 -0.248374 1.687916
v 0.221296 0.248374 1.687916
v 0.221296 -0.248374 12.232044
v 0.221296 0.248374 12.232044
v -2.698376 -0.248374 6.959980
v -2.698376 -0.000000 1.687916
v -2.698376 0.248374 6.959980
v -2.017485 -0.000000 12.232044
v -1.238540 -0.248374 12.773605
v -1.238540 0.248374 12.773605
v 0.221296 -0.000000 12.232044
v 0.221296 -0.248374 6.959980
v 0.221296 0.248374 6.959980
v 0.221296 -0.000000 1.687916
v -1.238540 -0.248374 1.687916
v -1.238540 0.248374 1.687916
v -1.238540 0.248374 6.959980
v -1.238540 -0.248374 6.959980
v -1.238540 -0.000000 1.687916
v 0.221296 -0.000000 6.959980
v -1.238540 -0.000000 12.773605
v -2.698376 -0.000000 6.959980
v -2.698376 -0.248374 4.323948
v -2.698376 0.124187 1.687916
v -2.698376 0.248374 9.596012
v -2.017485 -0.124187 12.232044
v -1.968458 -0.248374 12.232044
v -0.508622 0.248374 12.773605
v 0.221296 -0.124187 12.232044
v 0.221296 -0.248374 9.596012
v 0.221296 0.248374 4.323948
v 0.221296 -0.124187 1.687916
v -0.508622 -0.248374 1.687916
v -1.968458 0.248374 1.687916
v -2.698376 -0.248374 9.596012
v -2.698376 -0.124187 1.687916
v -2.698376 0.248374 4.323948
v -2.017485 0.124187 12.232044
v -0.508622 -0.248374 12.773605
v -1.968458 0.248374 12.232044
v 0.221296 0.124187 12.232044
v 0.221296 -0.248374 4.323948
v 0.221296 0.248374 9.596012
v 0.221296 0.124187 1.687916
v -1.968458 -0.248374 1.687916
v -0.508622 0.248374 1.687916
v -1.238540 0.248374 4.323948
v -1.238540 0.248374 9.596012
v -0.508622 0.248374 6.959980
v -1.968458 0.248374 6.959980
v -1.238540 -0.248374 4.323948
v -1.238540 -0.248374 9.596012
v -1.968458 -0.248374 6.959980
v -0.508622 -0.248374 6.959980
v -1.968458 -0.000000 1.687916
v -0.508622 -0.000000 1.687916
v -1.238540 -0.124187 1.687916
v -1.238540 0.124187 1.687916
v 0.221296 -0.000000 4.323948
v 0.221296 -0.000000 9.596012
v 0.221296 -0.124187 6.959980
v 0.221296 0.124187 6.959980
v -0.508622 -0.000000 12.773605
v -1.968458 -0.000000 12.232044
v -1.238540 -0.124187 12.773605
v -1.238540 0.124187 12.773605
v -2.698376 -0.000000 9.596012
v -2.698376 -0.000000 4.323948
v -2.698376 -0.124187 6.959980
v -2.698376 0.124187 6.959980
v -2.698376 0.124187 4.323948
v -2.698376 -0.124187 4.323948
v -2.698376 -0.124187 9.596012
v -1.968458 0.124187 12.232044
v -1.968458 -0.124187 12.232044
v -0.508622 -0.124187 12.773605
v 0.221296 0.124187 9.596012
v 0.221296 -0.124187 9.596012
v 0.221296 -0.124187 4.323948
v -0.508622 0.124187 1.687916
v -0.508622 -0.124187 1.687916
v -1.968458 -0.124187 1.687916
v -0.508622 -0.248374 9.596012
v -1.968458 -0.248374 9.596012
v -1.968458 -0.248374 4.323948
v -1.968458 0.248374 9.596012
v -0.508622 0.248374 9.596012
v -0.508622 0.248374 4.323948
v -1.968458 0.248374 4.323948
v -0.508622 -0.248374 4.323948
v -1.968458 0.124187 1.687916
v 0.221296 0.124187 4.323948
v -0.508622 0.124187 12.773605
v -2.698376 0.124187 9.596012
v -1.150507 0.248374 9.215708
v -1.238540 0.248374 7.224379
v -1.238540 0.248374 9.207037
v -0.955417 0.248374 9.196493
v -0.767824 0.248374 9.139587
v -1.150507 0.248374 7.215708
v -0.767824 0.248374 7.291828
v -0.955417 0.248374 7.234922
v -0.594937 0.248374 7.384238
v -0.508622 0.248374 7.455075
v -0.594937 0.248374 9.047176
v -0.508622 0.248374 8.976340
v -2.150507 0.248374 8.215708
v -2.074387 0.248374 7.833024
v -2.131293 0.248374 8.020617
v -2.131293 0.248374 8.410798
v -1.968458 0.248374 8.787751
v -1.981977 0.248374 8.771278
v -1.981977 0.248374 7.660137
v -1.968458 0.248374 7.643664
v -2.074387 0.248374 8.598392
v -1.706078 -0.248374 9.047176
v -1.533191 -0.248374 9.139587
v -1.238540 -0.248374 7.224379
v -1.238540 -0.248374 9.207037
v -1.345598 -0.248374 9.196493
v -1.857614 -0.248374 8.922814
v -1.857614 -0.248374 7.508601
v -1.968458 -0.248374 7.643664
v -1.968458 -0.248374 8.787751
v -1.706078 -0.248374 7.384238
v -1.345598 -0.248374 7.234922
v -1.533191 -0.248374 7.291828
v -0.226628 -0.248374 8.598392
v -0.169722 -0.248374 8.410798
v -0.443401 -0.248374 7.508601
v -0.508622 -0.248374 7.455075
v -0.443401 -0.248374 8.922814
v -0.508622 -0.248374 8.976340
v -0.319038 -0.248374 8.771278
v -0.226628 -0.248374 7.833024
v -0.150507 -0.248374 8.215708
v -0.169722 -0.248374 8.020617
v -0.319038 -0.248374 7.660137
v -0.767824 -0.248374 9.139587
v -0.955417 -0.248374 9.196493
v -0.594937 -0.248374 7.384238
v -0.594937 -0.248374 9.047176
v -1.150507 -0.248374 7.215708
v -1.150507 -0.248374 9.215708
v -0.955417 -0.248374 7.234922
v -0.767824 -0.248374 7.291828
v -2.150507 -0.248374 8.215708
v -2.131293 -0.248374 8.020617
v -2.131293 -0.248374 8.410798
v -1.981977 -0.248374 7.660137
v -1.981977 -0.248374 8.771278
v -2.074387 -0.248374 7.833024
v -2.074387 -0.248374 8.598392
v -1.857614 0.248374 7.508601
v -1.857614 0.248374 8.922814
v -1.706078 0.248374 9.047176
v -1.533191 0.248374 9.139587
v -1.533191 0.248374 7.291828
v -1.706078 0.248374 7.384238
v -1.345598 0.248374 7.234922
v -1.345598 0.248374 9.196493
v -0.443401 0.248374 8.922814
v -0.443401 0.248374 7.508601
v -0.169722 0.248374 8.410798
v -0.226628 0.248374 8.598392
v -0.319038 0.248374 8.771278
v -0.319038 0.248374 7.660137
v -0.226628 0.248374 7.833024
v -0.150507 0.248374 8.215708
v -0.169722 0.248374 8.020617
v 0.221296 0.248374 9.480616
v 0.221296 -0.248374 8.219984
v -2.698376 -0.248374 8.219984
v -2.698376 0.248374 8.214492
v 0.221296 0.248374 8.211245
vn -0.9682 -0.0000 -0.2501
vn 0.5959 -0.0000 -0.8031
vn 1.0000 -0.0000 -0.0000
vn -0.0000 -0.0000 1.0000
vn -0.0000 -1.0000 -0.0000
vn -0.0000 1.0000 -0.0000
vn -0.5959 -0.0000 -0.8031
vn -1.0000 -0.0000 -0.0000
vn -0.0000 -0.0000 -1.0000
vn -0.0980 -0.0000 0.9952
vn -0.2903 -0.0000 0.9569
vn -0.4714 -0.0000 0.8819
vn -0.6344 -0.0000 0.7730
vn -0.7730 -0.0000 0.6344
vn -0.8819 -0.0000 0.4714
vn -0.9569 -0.0000 0.2903
vn -0.9952 -0.0000 0.0980
vn -0.9952 -0.0000 -0.0980
vn -0.9569 -0.0000 -0.2903
vn -0.8819 -0.0000 -0.4714
vn -0.7730 -0.0000 -0.6344
vn -0.6344 -0.0000 -0.7730
vn -0.4714 -0.0000 -0.8819
vn -0.2903 -0.0000 -0.9569
vn -0.0980 -0.0000 -0.9952
vn 0.0980 -0.0000 -0.9952
vn 0.2903 -0.0000 -0.9569
vn 0.4714 -0.0000 -0.8819
vn 0.6344 -0.0000 -0.7730
vn 0.7730 -0.0000 -0.6344
vn 0.8819 -0.0000 -0.4714
vn 0.9569 -0.0000 -0.2903
vn 0.9952 -0.0000 -0.0980
vn 0.9952 -0.0000 0.0980
vn 0.9569 -0.0000 0.2903
vn 0.8819 -0.0000 0.4714
vn 0.7730 -0.0000 0.6344
vn 0.6344 -0.0000 0.7730
vn 0.4714 -0.0000 0.8819
vn 0.2903 -0.0000 0.9569
vn 0.0980 -0.0000 0.9952
vn -0.9682 -0.0000 0.2501
vn 0.5959 -0.0000 0.8031
vn -0.5959 -0.0000 0.8031
vt 0.562500 0.187500
vt 0.625000 0.187500
vt 0.625000 0.250000
vt 0.562500 0.250000
vt 0.562500 0.437500
vt 0.625000 0.437500
vt 0.625000 0.500000
vt 0.562500 0.500000
vt 0.562500 0.687500
vt 0.625000 0.687500
vt 0.625000 0.750000
vt 0.562500 0.750000
vt 0.562500 0.937500
vt 0.625000 0.937500
vt 0.625000 1.000000
vt 0.562500 1.000000
vt 0.312500 0.687500
vt 0.375000 0.687500
vt 0.375000 0.750000
vt 0.312500 0.750000
vt 0.812500 0.687500
vt 0.875000 0.687500
vt 0.875000 0.750000
vt 0.812500 0.750000
vt 0.687500 0.687500
vt 0.750000 0.687500
vt 0.750000 0.750000
vt 0.687500 0.750000
vt 0.750000 0.618731
vt 0.750000 0.625000
vt 0.687500 0.625000
vt 0.742462 0.618937
vt 0.687500 0.577192
vt 0.687500 0.562500
vt 0.709694 0.573322
vt 0.694891 0.575513
vt 0.812500 0.581664
vt 0.812500 0.562500
vt 0.875000 0.562500
vt 0.821570 0.586153
vt 0.813658 0.582054
vt 0.187500 0.687500
vt 0.250000 0.687500
vt 0.250000 0.750000
vt 0.187500 0.750000
vt 0.250000 0.625000
vt 0.187500 0.625000
vt 0.224770 0.617132
vt 0.240833 0.618481
vt 0.250000 0.618731
vt 0.187500 0.562500
vt 0.250000 0.562500
vt 0.209967 0.575513
vt 0.312500 0.562500
vt 0.375000 0.562500
vt 0.336646 0.586153
vt 0.328733 0.582054
vt 0.318085 0.578461
vt 0.312500 0.577192
vt 0.437500 0.937500
vt 0.500000 0.937500
vt 0.500000 1.000000
vt 0.437500 1.000000
vt 0.437500 0.812500
vt 0.500000 0.812500
vt 0.500000 0.875000
vt 0.437500 0.875000
vt 0.562500 0.812500
vt 0.625000 0.812500
vt 0.625000 0.875000
vt 0.562500 0.875000
vt 0.437500 0.687500
vt 0.500000 0.687500
vt 0.500000 0.750000
vt 0.437500 0.750000
vt 0.437500 0.562500
vt 0.500000 0.562500
vt 0.500000 0.625000
vt 0.437500 0.625000
vt 0.562500 0.562500
vt 0.625000 0.562500
vt 0.625000 0.565236
vt 0.625000 0.595333
vt 0.625000 0.625000
vt 0.562500 0.625000
vt 0.437500 0.437500
vt 0.500000 0.437500
vt 0.500000 0.500000
vt 0.437500 0.500000
vt 0.437500 0.312500
vt 0.500000 0.312500
vt 0.500000 0.375000
vt 0.437500 0.375000
vt 0.562500 0.312500
vt 0.625000 0.312500
vt 0.625000 0.375000
vt 0.562500 0.375000
vt 0.437500 0.187500
vt 0.500000 0.187500
vt 0.500000 0.250000
vt 0.437500 0.250000
vt 0.437500 0.062500
vt 0.500000 0.062500
vt 0.500000 0.125000
vt 0.437500 0.125000
vt 0.562500 0.062500
vt 0.625000 0.062500
vt 0.625000 0.125000
vt 0.562500 0.125000
vt 0.500000 0.000000
vt 0.562500 0.000000
vt 0.625000 0.000000
vt 0.375000 0.062500
vt 0.375000 0.125000
vt 0.375000 0.000000
vt 0.437500 0.000000
vt 0.375000 0.187500
vt 0.375000 0.250000
vt 0.375000 0.154875
vt 0.375000 0.312500
vt 0.375000 0.375000
vt 0.375000 0.437500
vt 0.375000 0.500000
vt 0.375000 0.625000
vt 0.375000 0.595125
vt 0.375000 0.812500
vt 0.375000 0.875000
vt 0.375000 0.937500
vt 0.375000 1.000000
vt 0.312500 0.625000
vt 0.257538 0.618937
vt 0.257538 0.571517
vt 0.250000 0.571723
vt 0.290306 0.573322
vt 0.274243 0.571973
vt 0.250000 0.500000
vt 0.312500 0.500000
vt 0.125000 0.625000
vt 0.186342 0.608399
vt 0.187500 0.608790
vt 0.125000 0.500000
vt 0.187500 0.500000
vt 0.125000 0.562500
vt 0.125000 0.687500
vt 0.125000 0.750000
vt 0.812500 0.608790
vt 0.812500 0.625000
vt 0.790033 0.614941
vt 0.803009 0.611992
vt 0.750000 0.571723
vt 0.750000 0.562500
vt 0.759167 0.571973
vt 0.750000 0.500000
vt 0.812500 0.500000
vt 0.875000 0.500000
vt 0.687500 0.613261
vt 0.663354 0.604300
vt 0.671267 0.608399
vt 0.681915 0.611992
vt 0.687500 0.500000
vt 0.875000 0.625000
vt 0.625000 0.154744
vt 0.968750 0.687907
vt 0.968750 0.812093
vt 1.000000 0.812093
vt 1.000000 0.687907
vt 0.937500 0.687907
vt 0.937500 0.812093
vt 0.906250 0.687907
vt 0.906250 0.812093
vt 0.888450 0.687907
vt 0.875000 0.687907
vt 0.875000 0.812093
vt 0.888450 0.812093
vt 0.843750 0.687907
vt 0.843750 0.812093
vt 0.812500 0.687907
vt 0.812500 0.812093
vt 0.781250 0.687907
vt 0.781250 0.812093
vt 0.750000 0.687907
vt 0.750000 0.812093
vt 0.718750 0.687907
vt 0.718750 0.812093
vt 0.687500 0.687907
vt 0.687500 0.812093
vt 0.656250 0.687907
vt 0.656250 0.812093
vt 0.625000 0.687907
vt 0.625000 0.812093
vt 0.593750 0.812093
vt 0.611550 0.812094
vt 0.611550 0.687907
vt 0.593750 0.687907
vt 0.562500 0.812093
vt 0.562500 0.687907
vt 0.531250 0.812093
vt 0.531250 0.687907
vt 0.500000 0.812093
vt 0.500000 0.687907
vt 0.485899 0.687907
vt 0.468750 0.687907
vt 0.468750 0.812093
vt 0.485899 0.812093
vt 0.437500 0.687907
vt 0.437500 0.812093
vt 0.406250 0.687907
vt 0.406250 0.812093
vt 0.375000 0.687907
vt 0.375000 0.812093
vt 0.343750 0.687907
vt 0.343750 0.812093
vt 0.347147 0.812093
vt 0.347147 0.687907
vt 0.312500 0.687907
vt 0.312500 0.812093
vt 0.281250 0.687907
vt 0.281250 0.812093
vt 0.250000 0.687907
vt 0.250000 0.812093
vt 0.218750 0.687907
vt 0.218750 0.812093
vt 0.187500 0.687907
vt 0.187500 0.812093
vt 0.156250 0.687907
vt 0.156250 0.812093
vt 0.125000 0.687907
vt 0.125000 0.812093
vt 0.152853 0.812093
vt 0.152853 0.687907
vt 0.093750 0.687907
vt 0.093750 0.812093
vt 0.062500 0.687907
vt 0.062500 0.812093
vt 0.031250 0.687907
vt 0.031250 0.812093
vt 0.000000 0.687907
vt 0.000000 0.812093
vt 0.014101 0.812093
vt 0.014101 0.687906
vt 0.759167 0.618481
vt 0.775230 0.617132
vt 0.709694 0.617132
vt 0.725757 0.618481
vt 0.694891 0.614941
vt 0.821570 0.604300
vt 0.813658 0.608399
vt 0.790033 0.575513
vt 0.775230 0.573322
vt 0.803009 0.578461
vt 0.742462 0.571517
vt 0.725757 0.571973
vt 0.875000 0.595256
vt 0.828088 0.595227
vt 0.826443 0.590601
vt 0.663354 0.586153
vt 0.681915 0.578461
vt 0.671267 0.582054
vt 0.656836 0.595227
vt 0.658481 0.599852
vt 0.274243 0.618481
vt 0.290306 0.617132
vt 0.305109 0.614941
vt 0.312500 0.613261
vt 0.343164 0.595227
vt 0.341519 0.590601
vt 0.196991 0.611992
vt 0.209967 0.614941
vt 0.328733 0.608399
vt 0.318085 0.611992
vt 0.125000 0.595125
vt 0.171912 0.595227
vt 0.173557 0.599852
vt 0.178430 0.604300
vt 0.178430 0.586153
vt 0.187500 0.581664
vt 0.186342 0.582054
vt 0.196991 0.578461
vt 0.240833 0.571972
vt 0.224770 0.573322
vt 0.305109 0.575513
vt 0.336646 0.604300
vt 0.341519 0.599852
vt 0.173557 0.590601
vt 0.826443 0.599852
vt 0.658481 0.590601
s 0
f 432/202/290 363/203/290 338/204/290 376/205/290
f 431/206/291 366/207/291 342/208/291 379/209/291
f 430/210/292 369/211/292 340/212/292 382/213/292
f 429/214/293 372/215/293 336/216/293 362/217/293
f 428/218/294 380/219/294 339/220/294 371/221/294
f 427/222/295 375/223/295 336/224/295 372/225/295
f 426/226/295 385/227/295 354/228/295 384/229/295
f 434/230/295 355/231/295 387/232/295 438/233/295
f 444/234/295 425/235/295 437/236/295 443/237/295
f 449/238/295 424/239/295 363/240/295 453/241/295 450/242/295
f 423/243/294 389/244/294 353/245/294 383/246/294
f 356/247/294 391/248/294 465/249/294 464/250/294 456/251/294
f 422/252/294 390/253/294 454/254/294
f 421/255/294 368/256/294 466/257/294 472/258/294 470/259/294 471/260/294
f 420/261/293 393/262/293 344/263/293 374/264/293
f 419/265/293 394/266/293 357/267/293 395/268/293
f 418/269/293 384/270/293 354/271/293 396/272/293
f 417/273/292 397/274/292 352/275/292 370/276/292
f 416/277/292 398/278/292 358/279/292 399/280/292
f 415/281/292 381/282/292 509/283/292 513/284/292 351/285/292 400/286/292
f 414/287/291 401/288/291 349/289/291 367/290/291
f 413/291/296 402/292/296 359/293/296 403/294/296
f 412/295/296 378/296/296 348/297/296 404/298/296
f 411/299/290 405/300/290 346/301/290 364/302/290
f 410/303/297 406/304/297 360/305/297 407/306/297
f 409/307/297 375/308/297 345/309/297 408/310/297
f 406/304/297 409/307/297 408/310/297 360/305/297
f 344/311/297 362/312/297 409/307/297 406/304/297
f 362/312/297 336/313/297 375/308/297 409/307/297
f 361/314/297 410/303/297 407/306/297 343/315/297
f 335/316/297 374/317/297 410/303/297 361/314/297
f 374/317/297 344/311/297 406/304/297 410/303/297
f 373/318/290 411/299/290 364/302/290 337/319/290
f 343/315/297 407/306/297 411/299/297 373/318/297 511/320/297
f 407/306/297 360/305/297 405/300/297 411/299/297
f 402/292/296 412/295/296 404/298/296 359/293/296
f 346/301/298 376/205/298 412/295/298 402/292/298
f 376/205/298 338/204/298 378/296/298 412/295/298
f 365/321/296 413/291/296 403/294/296 347/322/296
f 337/319/298 364/302/298 413/291/298 365/321/298
f 364/302/298 346/301/298 402/292/298 413/291/298
f 377/323/291 414/287/291 367/290/291 341/324/291
f 347/322/298 403/294/298 414/287/298 377/323/298
f 403/294/298 359/293/298 401/288/298 414/287/298
f 398/278/292 415/281/292 400/286/292 358/279/292
f 349/289/292 379/209/292 415/281/292 398/278/292
f 379/209/292 342/208/292 381/282/292 415/281/292
f 368/256/292 416/277/292 399/280/292 350/325/292 510/326/292
f 341/324/292 367/290/292 416/277/292 368/256/292
f 367/290/292 349/289/292 398/278/292 416/277/292
f 380/219/292 417/273/292 370/276/292 339/220/292
f 350/325/292 399/280/292 417/273/292 380/219/292
f 399/280/292 358/279/292 397/274/292 417/273/292
f 394/266/293 418/269/293 396/272/293 357/267/293
f 352/275/293 382/213/293 418/269/293 394/266/293
f 382/213/293 340/212/293 384/270/293 418/269/293
f 371/327/293 419/265/293 395/268/293 353/328/293
f 339/220/293 370/276/293 419/265/293 371/327/293
f 370/276/293 352/275/293 394/266/293 419/265/293
f 383/329/293 420/261/293 374/264/293 335/330/293
f 353/328/293 395/268/293 420/261/293 383/329/293
f 395/268/293 357/267/293 393/262/293 420/261/293
f 392/331/294 356/247/294 456/251/294 481/332/294
f 482/333/294 457/334/294 390/253/294 477/335/294 478/336/294
f 347/337/294 377/338/294 421/255/294 390/253/294
f 377/338/294 341/324/294 368/256/294 421/255/294
f 391/248/294 343/339/294 488/340/294 461/341/294
f 337/342/294 365/343/294 422/252/294 373/344/294
f 365/343/294 347/337/294 390/253/294 422/252/294
f 361/345/294 423/243/294 383/246/294 335/346/294
f 343/339/294 391/248/294 423/243/294 361/345/294
f 391/248/294 356/247/294 389/244/294 423/243/294
f 452/347/295 388/348/295 497/349/295 492/350/295
f 435/351/295 386/352/295 424/239/295 499/353/295
f 348/354/295 378/355/295 424/239/295 386/352/295
f 378/355/295 338/356/295 363/240/295 424/239/295
f 442/357/295 387/232/295 351/285/295 506/358/295 505/359/295 501/360/295
f 342/208/295 366/361/295 425/235/295 381/282/295
f 366/361/295 348/354/295 386/352/295 425/235/295
f 369/211/295 426/226/295 384/229/295 340/212/295
f 351/285/295 387/232/295 426/226/295 369/211/295
f 387/232/295 355/231/295 385/227/295 426/226/295
f 385/227/295 427/222/295 372/225/295 354/228/295
f 355/231/295 388/348/295 427/222/295 385/227/295
f 388/348/295 345/362/295 375/223/295 427/222/295
f 389/244/294 428/218/294 371/221/294 353/245/294
f 356/247/294 392/331/294 428/218/294 389/244/294
f 392/331/294 350/325/294 380/219/294 428/218/294
f 393/262/293 429/214/293 362/217/293 344/263/293
f 357/267/293 396/272/293 429/214/293 393/262/293
f 396/272/293 354/271/293 372/215/293 429/214/293
f 397/274/292 430/210/292 382/213/292 352/275/292
f 358/279/292 400/286/292 430/210/292 397/274/292
f 400/286/292 351/285/292 369/211/292 430/210/292
f 401/288/291 431/206/291 379/209/291 349/289/291
f 359/293/298 404/298/298 431/206/298 401/288/298
f 404/298/298 348/297/298 366/207/298 431/206/298
f 405/300/290 432/202/290 376/205/290 346/301/290
f 360/305/297 408/310/297 432/202/297 405/300/297
f 408/310/297 345/309/297 512/363/297 363/203/297 432/202/297
f 478/364/299 436/365/299 433/366/299 482/367/299
f 477/368/300 437/369/300 436/365/300 478/364/300
f 480/370/301 443/371/301 437/369/301 477/368/301
f 471/372/302 470/373/302 500/374/302 444/375/302 443/371/302 480/370/302
f 470/373/303 472/376/303 504/377/303 500/374/303
f 472/376/304 466/378/304 503/379/304 504/377/304
f 466/378/305 467/380/305 502/381/305 503/379/305
f 467/380/306 474/382/306 507/383/306 502/381/306
f 474/382/307 475/384/307 508/385/307 507/383/307
f 475/384/308 473/386/308 506/387/308 508/385/308
f 473/386/309 476/388/309 505/389/309 506/387/309
f 476/388/310 468/390/310 501/391/310 505/389/310
f 441/392/311 442/393/311 501/391/311 468/390/311 469/394/311 479/395/311
f 439/396/312 441/392/312 479/395/312 484/397/312
f 440/398/313 439/396/313 484/397/313 483/399/313
f 438/400/314 440/398/314 483/399/314 481/401/314
f 456/402/315 464/403/315 498/404/315 434/405/315 438/400/315 481/401/315
f 464/403/316 465/406/316 496/407/316 498/404/316
f 465/406/317 463/408/317 497/409/317 496/407/317
f 497/409/318 463/408/318 460/410/318 492/411/318
f 488/412/319 451/413/319 452/414/319 492/411/319 460/410/319 461/415/319
f 490/416/320 446/417/320 451/413/320 488/412/320
f 486/418/321 447/419/321 446/417/321 490/416/321
f 485/420/322 445/421/322 447/419/322 486/418/322
f 487/422/323 448/423/323 445/421/323 485/420/323
f 491/424/324 453/425/324 448/423/324 487/422/324
f 489/426/325 450/427/325 453/425/325 491/424/325
f 459/428/326 493/429/326 449/430/326 450/427/326 489/426/326 462/431/326
f 493/429/327 459/428/327 454/432/327 494/433/327
f 494/433/328 454/432/328 455/434/328 495/435/328
f 495/435/329 455/434/329 458/436/329 499/437/329
f 482/438/330 433/439/330 435/440/330 499/437/330 458/436/330 457/441/330
f 497/349/295 388/348/295 498/442/295 496/443/295
f 498/442/295 388/348/295 355/231/295 434/230/295
f 438/233/295 387/232/295 439/444/295 440/445/295
f 439/444/295 387/232/295 442/357/295 441/446/295
f 446/447/295 345/362/295 388/348/295 452/347/295 451/448/295
f 499/353/295 424/239/295 494/449/295 495/450/295
f 494/449/295 424/239/295 449/238/295 493/451/295
f 437/236/295 425/235/295 433/452/295 436/453/295
f 433/452/295 425/235/295 386/352/295 435/351/295
f 453/241/295 363/240/295 512/454/295 445/455/295 448/456/295
f 503/457/295 509/283/295 381/282/295 425/235/295 444/234/295 500/458/295 504/459/295
f 506/358/295 351/285/295 513/284/295 507/460/295 508/461/295
f 481/332/294 483/462/294 484/463/294 392/331/294
f 484/463/294 479/464/294 469/465/294 392/331/294
f 466/257/294 368/256/294 510/326/294 474/466/294 467/467/294
f 465/249/294 391/248/294 460/468/294 463/469/294
f 460/468/294 391/248/294 461/341/294
f 476/470/294 350/325/294 392/331/294 469/465/294 468/471/294
f 488/340/294 343/339/294 511/472/294 485/473/294 486/474/294 490/475/294
f 491/476/294 373/344/294 422/252/294 462/477/294 489/478/294
f 454/254/294 459/479/294 462/477/294 422/252/294
f 454/254/294 390/253/294 457/334/294 458/480/294 455/481/294
f 477/335/294 421/255/294 471/260/294 480/482/294
f 421/255/294 477/335/294 390/253/294
f 474/466/294 510/326/294 350/325/294 476/470/294 473/483/294 475/484/294
f 485/473/294 511/472/294 373/344/294 491/476/294 487/485/294
f 445/455/295 512/454/295 345/362/295 446/447/295 447/486/295
f 507/460/295 513/284/295 509/283/295 503/457/295 502/487/295
f 611/202/331 555/205/331 517/204/331 542/203/331
f 610/206/332 558/209/332 521/208/332 545/207/332
f 609/210/292 561/213/292 519/212/292 548/211/292
f 608/214/298 541/217/298 515/216/298 551/215/298
f 607/218/294 550/221/294 518/220/294 559/219/294
f 606/222/295 551/225/295 515/224/295 554/223/295
f 605/226/295 563/229/295 533/228/295 564/227/295
f 613/230/295 617/233/295 566/232/295 534/231/295
f 623/234/295 622/237/295 616/236/295 604/235/295
f 628/238/295 629/242/295 632/241/295 542/240/295 603/239/295
f 602/243/294 562/246/294 532/245/294 568/244/294
f 535/247/294 635/251/294 643/250/294 644/249/294 570/248/294
f 601/252/294 633/254/294 569/253/294
f 600/255/294 650/260/294 649/259/294 651/258/294 645/257/294 547/256/294
f 599/261/298 553/264/298 523/263/298 572/262/298
f 598/265/298 574/268/298 536/267/298 573/266/298
f 597/269/298 575/272/298 533/271/298 563/270/298
f 596/273/292 549/276/292 531/275/292 576/274/292
f 595/277/292 578/280/292 537/279/292 577/278/292
f 594/281/292 579/286/292 530/285/292 692/284/292 688/283/292 560/282/292
f 593/287/332 546/290/332 528/289/332 580/288/332
f 592/291/333 582/294/333 538/293/333 581/292/333
f 591/295/333 583/298/333 527/297/333 557/296/333
f 590/299/331 543/302/331 525/301/331 584/300/331
f 589/303/297 586/306/297 539/305/297 585/304/297
f 588/307/297 587/310/297 524/309/297 554/308/297
f 585/304/297 539/305/297 587/310/297 588/307/297
f 523/311/297 585/304/297 588/307/297 541/312/297
f 541/312/297 588/307/297 554/308/297 515/313/297
f 540/314/297 522/315/297 586/306/297 589/303/297
f 514/316/297 540/314/297 589/303/297 553/317/297
f 553/317/297 589/303/297 585/304/297 523/311/297
f 552/318/331 516/319/331 543/302/331 590/299/331
f 522/315/297 690/320/297 552/318/297 590/299/297 586/306/297
f 586/306/297 590/299/297 584/300/297 539/305/297
f 581/292/333 538/293/333 583/298/333 591/295/333
f 525/301/293 581/292/293 591/295/293 555/205/293
f 555/205/293 591/295/293 557/296/293 517/204/293
f 544/321/333 526/322/333 582/294/333 592/291/333
f 516/319/293 544/321/293 592/291/293 543/302/293
f 543/302/293 592/291/293 581/292/293 525/301/293
f 556/323/332 520/324/332 546/290/332 593/287/332
f 526/322/293 556/323/293 593/287/293 582/294/293
f 582/294/293 593/287/293 580/288/293 538/293/293
f 577/278/292 537/279/292 579/286/292 594/281/292
f 528/289/292 577/278/292 594/281/292 558/209/292
f 558/209/292 594/281/292 560/282/292 521/208/292
f 547/256/292 689/326/292 529/325/292 578/280/292 595/277/292
f 520/324/292 547/256/292 595/277/292 546/290/292
f 546/290/292 595/277/292 577/278/292 528/289/292
f 559/219/292 518/220/292 549/276/292 596/273/292
f 529/325/292 559/219/292 596/273/292 578/280/292
f 578/280/292 596/273/292 576/274/292 537/279/292
f 573/266/298 536/267/298 575/272/298 597/269/298
f 531/275/298 573/266/298 597/269/298 561/213/298
f 561/213/298 597/269/298 563/270/298 519/212/298
f 550/327/298 532/328/298 574/268/298 598/265/298
f 518/220/298 550/327/298 598/265/298 549/276/298
f 549/276/298 598/265/298 573/266/298 531/275/298
f 562/329/298 514/330/298 553/264/298 599/261/298
f 532/328/298 562/329/298 599/261/298 574/268/298
f 574/268/298 599/261/298 572/262/298 536/267/298
f 571/331/294 660/332/294 635/251/294 535/247/294
f 661/333/294 657/336/294 656/335/294 569/253/294 636/334/294
f 526/337/294 569/253/294 600/255/294 556/338/294
f 556/338/294 600/255/294 547/256/294 520/324/294
f 570/248/294 640/341/294 667/340/294 522/339/294
f 516/342/294 552/344/294 601/252/294 544/343/294
f 544/343/294 601/252/294 569/253/294 526/337/294
f 540/345/294 514/346/294 562/246/294 602/243/294
f 522/339/294 540/345/294 602/243/294 570/248/294
f 570/248/294 602/243/294 568/244/294 535/247/294
f 631/347/295 671/350/295 676/349/295 567/348/295
f 614/351/295 678/353/295 603/239/295 565/352/295
f 527/354/295 565/352/295 603/239/295 557/355/295
f 557/355/295 603/239/295 542/240/295 517/356/295
f 621/357/295 680/360/295 684/359/295 685/358/295 530/285/295 566/232/295
f 521/208/295 560/282/295 604/235/295 545/361/295
f 545/361/295 604/235/295 565/352/295 527/354/295
f 548/211/295 519/212/295 563/229/295 605/226/295
f 530/285/295 548/211/295 605/226/295 566/232/295
f 566/232/295 605/226/295 564/227/295 534/231/295
f 564/227/295 533/228/295 551/225/295 606/222/295
f 534/231/295 564/227/295 606/222/295 567/348/295
f 567/348/295 606/222/295 554/223/295 524/362/295
f 568/244/294 532/245/294 550/221/294 607/218/294
f 535/247/294 568/244/294 607/218/294 571/331/294
f 571/331/294 607/218/294 559/219/294 529/325/294
f 572/262/298 523/263/298 541/217/298 608/214/298
f 536/267/298 572/262/298 608/214/298 575/272/298
f 575/272/298 608/214/298 551/215/298 533/271/298
f 576/274/292 531/275/292 561/213/292 609/210/292
f 537/279/292 576/274/292 609/210/292 579/286/292
f 579/286/292 609/210/292 548/211/292 530/285/292
f 580/288/332 528/289/332 558/209/332 610/206/332
f 538/293/293 580/288/293 610/206/293 583/298/293
f 583/298/293 610/206/293 545/207/293 527/297/293
f 584/300/331 525/301/331 555/205/331 611/202/331
f 539/305/297 584/300/297 611/202/297 587/310/297
f 587/310/297 611/202/297 542/203/297 691/363/297 524/309/297
f 657/364/314 661/367/314 612/366/314 615/365/314
f 656/368/313 657/364/313 615/365/313 616/369/313
f 659/370/312 656/368/312 616/369/312 622/371/312
f 650/372/311 659/370/311 622/371/311 623/375/311 679/374/311 649/373/311
f 649/373/310 679/374/310 683/377/310 651/376/310
f 651/376/309 683/377/309 682/379/309 645/378/309
f 645/378/308 682/379/308 681/381/308 646/380/308
f 646/380/307 681/381/307 686/383/307 653/382/307
f 653/382/306 686/383/306 687/385/306 654/384/306
f 654/384/305 687/385/305 685/387/305 652/386/305
f 652/386/304 685/387/304 684/389/304 655/388/304
f 655/388/303 684/389/303 680/391/303 647/390/303
f 620/392/302 658/395/302 648/394/302 647/390/302 680/391/302 621/393/302
f 618/396/301 663/397/301 658/395/301 620/392/301
f 619/398/300 662/399/300 663/397/300 618/396/300
f 617/400/299 660/401/299 662/399/299 619/398/299
f 635/402/330 660/401/330 617/400/330 613/405/330 677/404/330 643/403/330
f 643/403/329 677/404/329 675/407/329 644/406/329
f 644/406/328 675/407/328 676/409/328 642/408/328
f 676/409/327 671/411/327 639/410/327 642/408/327
f 667/412/326 640/415/326 639/410/326 671/411/326 631/414/326 630/413/326
f 669/416/325 667/412/325 630/413/325 625/417/325
f 665/418/324 669/416/324 625/417/324 626/419/324
f 664/420/323 665/418/323 626/419/323 624/421/323
f 666/422/322 664/420/322 624/421/322 627/423/322
f 670/424/321 666/422/321 627/423/321 632/425/321
f 668/426/320 670/424/320 632/425/320 629/427/320
f 638/428/319 641/431/319 668/426/319 629/427/319 628/430/319 672/429/319
f 672/429/318 673/433/318 633/432/318 638/428/318
f 673/433/317 674/435/317 634/434/317 633/432/317
f 674/435/316 678/437/316 637/436/316 634/434/316
f 661/438/315 636/441/315 637/436/315 678/437/315 614/440/315 612/439/315
f 676/349/295 675/443/295 677/442/295 567/348/295
f 677/442/295 613/230/295 534/231/295 567/348/295
f 617/233/295 619/445/295 618/444/295 566/232/295
f 618/444/295 620/446/295 621/357/295 566/232/295
f 625/447/295 630/448/295 631/347/295 567/348/295 524/362/295
f 678/353/295 674/450/295 673/449/295 603/239/295
f 673/449/295 672/451/295 628/238/295 603/239/295
f 616/236/295 615/453/295 612/452/295 604/235/295
f 612/452/295 614/351/295 565/352/295 604/235/295
f 632/241/295 627/456/295 624/455/295 691/454/295 542/240/295
f 682/457/295 683/459/295 679/458/295 623/234/295 604/235/295 560/282/295 688/283/295
f 685/358/295 687/461/295 686/460/295 692/284/295 530/285/295
f 660/332/294 571/331/294 663/463/294 662/462/294
f 663/463/294 571/331/294 648/465/294 658/464/294
f 645/257/294 646/467/294 653/466/294 689/326/294 547/256/294
f 644/249/294 642/469/294 639/468/294 570/248/294
f 639/468/294 640/341/294 570/248/294
f 655/470/294 647/471/294 648/465/294 571/331/294 529/325/294
f 667/340/294 669/475/294 665/474/294 664/473/294 690/472/294 522/339/294
f 670/476/294 668/478/294 641/477/294 601/252/294 552/344/294
f 633/254/294 601/252/294 641/477/294 638/479/294
f 633/254/294 634/481/294 637/480/294 636/334/294 569/253/294
f 656/335/294 659/482/294 650/260/294 600/255/294
f 600/255/294 569/253/294 656/335/294
f 653/466/294 654/484/294 652/483/294 655/470/294 529/325/294 689/326/294
f 664/473/294 666/485/294 670/476/294 552/344/294 690/472/294
f 624/455/295 626/486/295 625/447/295 524/362/295 691/454/295
f 686/460/295 681/487/295 682/457/295 688/283/295 692/284/295
o Cube.002
v 9.196212 0.698654 2.597844
v 9.196212 -0.026892 2.597844
v 12.168489 0.698654 2.575179
v 12.168489 -0.026893 2.575179
v 9.196212 0.335881 2.597844
v 11.157690 0.698654 3.812683
v 11.157690 -0.026893 3.812683
v 12.168489 0.335881 2.575179
v 11.157690 0.335881 3.812683
v 8.078578 -0.026892 1.613732
v 9.196212 0.517267 2.597844
v 10.186857 0.698654 3.237998
v 11.887736 -0.026893 3.591743
v 12.168489 0.517267 2.575179
v 11.749783 0.698654 0.502687
v 8.078578 0.698654 1.613732
v 9.196212 0.154494 2.597844
v 11.887736 0.698654 3.591743
v 10.186857 -0.026893 3.237998
v 12.168489 0.154494 2.575179
v 11.749783 -0.026892 0.502687
v 10.289689 -0.026892 0.944566
v 10.289689 0.698654 0.944566
v 11.749783 0.335881 0.502687
v 11.887736 0.335881 3.591743
v 10.186857 0.335881 3.237998
v 11.157690 0.517267 3.812683
v 11.157690 0.154494 3.812683
v 8.078578 0.335881 1.613732
v 8.078578 0.517268 1.613732
v 10.186857 0.154494 3.237998
v 10.186857 0.517267 3.237998
v 11.887736 0.517267 3.591743
v 11.749783 0.154494 0.502687
v 11.749783 0.517268 0.502687
v 11.019735 0.698654 0.723627
v 9.559643 0.698654 1.165506
v 9.559643 -0.026892 1.165506
v 11.019735 -0.026892 0.723627
v 11.887736 0.154494 3.591743
v 8.078578 0.154494 1.613732
v 8.078578 -0.026892 1.613732
v 9.559643 -0.026892 1.165506
v 10.289689 0.698654 0.944566
v 9.559643 0.698654 1.165506
vn -0.6609 -0.0000 0.7505
vn 0.9639 -0.0000 0.2662
vn -0.5094 -0.0000 0.8605
vn -0.5427 -0.0000 0.8399
vn 0.2897 -0.0000 0.9571
vn 0.9802 -0.0000 -0.1980
vn -0.0000 1.0000 -0.0000
vn -0.0000 -1.0000 -0.0000
vn -0.2897 -0.0000 -0.9571
vt 0.562500 0.187500
vt 0.625000 0.187500
vt 0.625000 0.250000
vt 0.562500 0.250000
vt 0.562500 0.437500
vt 0.625000 0.437500
vt 0.625000 0.500000
vt 0.562500 0.500000
vt 0.437500 0.437500
vt 0.500000 0.437500
vt 0.500000 0.500000
vt 0.437500 0.500000
vt 0.437500 0.312500
vt 0.500000 0.312500
vt 0.500000 0.375000
vt 0.437500 0.375000
vt 0.562500 0.312500
vt 0.625000 0.312500
vt 0.625000 0.375000
vt 0.562500 0.375000
vt 0.437500 0.187500
vt 0.500000 0.187500
vt 0.500000 0.250000
vt 0.437500 0.250000
vt 0.375000 0.187500
vt 0.375000 0.250000
vt 0.375000 0.312500
vt 0.375000 0.375000
vt 0.375000 0.437500
vt 0.375000 0.500000
vt 0.562500 0.562500
vt 0.500000 0.562500
vt 0.625000 0.562500
vt 0.437500 0.562500
vt 0.375000 0.562500
vt 0.250000 0.500000
vt 0.312500 0.500000
vt 0.312500 0.562500
vt 0.250000 0.562500
vt 0.125000 0.500000
vt 0.187500 0.500000
vt 0.187500 0.562500
vt 0.125000 0.562500
vt 0.750000 0.500000
vt 0.812500 0.500000
vt 0.812500 0.562500
vt 0.750000 0.562500
vt 0.875000 0.500000
vt 0.875000 0.562500
vt 0.687500 0.500000
vt 0.687500 0.562500
s 0
f 733/488/334 702/489/334 694/490/334 709/491/334
f 732/492/335 705/493/335 696/494/335 712/495/335
f 725/496/335 717/497/335 700/498/335 706/499/335
f 724/500/336 718/501/336 701/502/336 719/503/336
f 723/504/336 711/505/336 699/506/336 720/507/336
f 722/508/334 721/509/334 697/510/334 703/511/334
f 708/512/334 722/508/334 703/511/334 693/513/334
f 718/501/336 723/504/336 720/507/336 701/502/336
f 697/510/337 709/491/337 723/504/337 718/501/337
f 709/491/337 694/490/337 711/505/337 723/504/337
f 704/514/336 724/500/336 719/503/336 698/515/336
f 693/513/337 703/511/337 724/500/337 704/514/337
f 703/511/337 697/510/337 718/501/337 724/500/337
f 710/516/335 725/496/335 706/499/335 695/517/335
f 698/515/338 719/503/338 725/496/338 710/516/338
f 719/503/338 701/502/338 717/497/338 725/496/338
f 700/498/339 712/495/339 726/518/339 716/519/339
f 712/495/339 696/494/339 713/520/339 726/518/339
f 695/517/339 706/499/339 727/521/339 707/522/339
f 706/499/339 700/498/339 716/519/339 727/521/339
f 698/523/340 710/524/340 728/525/340 715/526/340
f 710/524/340 695/517/340 707/522/340 728/525/340
f 693/527/340 704/528/340 729/529/340 708/530/340
f 704/528/340 698/523/340 715/526/340 729/529/340
f 699/531/341 711/532/341 730/533/341 714/534/341
f 711/532/341 694/535/341 702/536/341 730/533/341
f 696/494/341 705/537/341 731/538/341 713/520/341
f 705/537/341 699/531/341 714/534/341 731/538/341
f 717/497/335 732/492/335 712/495/335 700/498/335
f 701/502/338 720/507/338 732/492/338 717/497/338
f 720/507/338 699/506/338 705/493/338 732/492/338
f 721/509/334 733/488/334 709/491/334 697/510/334
f 730/533/341 702/536/341 734/536/341 735/533/341
f 729/529/341 715/526/341 736/526/341 737/529/341
f 708/512/342 737/529/342 736/526/342 715/526/342 728/525/342 707/522/342 727/521/342 716/519/342 726/518/342 713/520/342 731/538/342 714/534/342 730/533/342 735/533/342 734/536/342 733/488/342 721/509/342 722/508/342
o Cube.003
v 9.196186 -0.026892 -2.597846
v 9.196186 0.698654 -2.597846
v 12.168463 -0.026892 -2.575182
v 12.168463 0.698654 -2.575182
v 9.196186 0.335881 -2.597846
v 11.157663 -0.026892 -3.812686
v 11.157663 0.698654 -3.812686
v 12.168463 0.335881 -2.575182
v 11.157663 0.335881 -3.812686
v 8.078552 0.698654 -1.613733
v 9.196186 0.154494 -2.597846
v 10.186831 -0.026892 -3.238000
v 11.887710 0.698654 -3.591747
v 12.168463 0.154494 -2.575182
v 11.749757 -0.026892 -0.502690
v 8.078552 -0.026892 -1.613733
v 9.196186 0.517267 -2.597846
v 11.887710 -0.026892 -3.591747
v 10.186831 0.698654 -3.238000
v 12.168463 0.517267 -2.575182
v 11.749757 0.698654 -0.502690
v 10.289664 0.698654 -0.944569
v 10.289664 -0.026892 -0.944569
v 11.749757 0.335881 -0.502690
v 11.887710 0.335881 -3.591747
v 10.186831 0.335881 -3.238000
v 11.157663 0.154494 -3.812686
v 11.157663 0.517267 -3.812686
v 8.078552 0.335881 -1.613733
v 8.078552 0.154494 -1.613733
v 10.186831 0.517267 -3.238000
v 10.186831 0.154494 -3.238000
v 11.887710 0.154494 -3.591747
v 11.749757 0.517267 -0.502690
v 11.749757 0.154494 -0.502690
v 11.019711 -0.026892 -0.723629
v 9.559618 -0.026892 -1.165508
v 9.559618 0.698654 -1.165508
v 11.019711 0.698654 -0.723629
v 11.887710 0.517267 -3.591747
v 8.078552 0.517267 -1.613733
v 8.078552 0.698654 -1.613733
v 9.559618 0.698654 -1.165508
v 10.289664 -0.026892 -0.944569
v 9.559618 -0.026892 -1.165508
vn -0.6609 -0.0000 -0.7505
vn 0.9639 -0.0000 -0.2662
vn -0.5094 -0.0000 -0.8605
vn -0.5427 -0.0000 -0.8399
vn 0.2897 -0.0000 -0.9571
vn 0.9802 -0.0000 0.1980
vn -0.0000 -1.0000 -0.0000
vn -0.0000 1.0000 -0.0000
vn -0.2897 -0.0000 0.9571
vt 0.562500 0.187500
vt 0.625000 0.187500
vt 0.625000 0.250000
vt 0.562500 0.250000
vt 0.562500 0.437500
vt 0.625000 0.437500
vt 0.625000 0.500000
vt 0.562500 0.500000
vt 0.437500 0.437500
vt 0.500000 0.437500
vt 0.500000 0.500000
vt 0.437500 0.500000
vt 0.437500 0.312500
vt 0.500000 0.312500
vt 0.500000 0.375000
vt 0.437500 0.375000
vt 0.562500 0.312500
vt 0.625000 0.312500
vt 0.625000 0.375000
vt 0.562500 0.375000
vt 0.437500 0.187500
vt 0.500000 0.187500
vt 0.500000 0.250000
vt 0.437500 0.250000
vt 0.375000 0.187500
vt 0.375000 0.250000
vt 0.375000 0.312500
vt 0.375000 0.375000
vt 0.375000 0.437500
vt 0.375000 0.500000
vt 0.562500 0.562500
vt 0.500000 0.562500
vt 0.625000 0.562500
vt 0.437500 0.562500
vt 0.375000 0.562500
vt 0.250000 0.500000
vt 0.312500 0.500000
vt 0.312500 0.562500
vt 0.250000 0.562500
vt 0.125000 0.500000
vt 0.187500 0.500000
vt 0.187500 0.562500
vt 0.125000 0.562500
vt 0.750000 0.500000
vt 0.812500 0.500000
vt 0.812500 0.562500
vt 0.750000 0.562500
vt 0.875000 0.500000
vt 0.875000 0.562500
vt 0.687500 0.500000
vt 0.687500 0.562500
s 0
f 778/539/343 747/540/343 739/541/343 754/542/343
f 777/543/344 750/544/344 741/545/344 757/546/344
f 770/547/344 762/548/344 745/549/344 751/550/344
f 769/551/345 763/552/345 746/553/345 764/554/345
f 768/555/345 756/556/345 744/557/345 765/558/345
f 767/559/343 766/560/343 742/561/343 748/562/343
f 753/563/343 767/559/343 748/562/343 738/564/343
f 763/552/345 768/555/345 765/558/345 746/553/345
f 742/561/346 754/542/346 768/555/346 763/552/346
f 754/542/346 739/541/346 756/556/346 768/555/346
f 749/565/345 769/551/345 764/554/345 743/566/345
f 738/564/346 748/562/346 769/551/346 749/565/346
f 748/562/346 742/561/346 763/552/346 769/551/346
f 755/567/344 770/547/344 751/550/344 740/568/344
f 743/566/347 764/554/347 770/547/347 755/567/347
f 764/554/347 746/553/347 762/548/347 770/547/347
f 745/549/348 757/546/348 771/569/348 761/570/348
f 757/546/348 741/545/348 758/571/348 771/569/348
f 740/568/348 751/550/348 772/572/348 752/573/348
f 751/550/348 745/549/348 761/570/348 772/572/348
f 743/574/349 755/575/349 773/576/349 760/577/349
f 755/575/349 740/568/349 752/573/349 773/576/349
f 738/578/349 749/579/349 774/580/349 753/581/349
f 749/579/349 743/574/349 760/577/349 774/580/349
f 744/582/350 756/583/350 775/584/350 759/585/350
f 756/583/350 739/586/350 747/587/350 775/584/350
f 741/545/350 750/588/350 776/589/350 758/571/350
f 750/588/350 744/582/350 759/585/350 776/589/350
f 762/548/344 777/543/344 757/546/344 745/549/344
f 746/553/347 765/558/347 777/543/347 762/548/347
f 765/558/347 744/557/347 750/544/347 777/543/347
f 766/560/343 778/539/343 754/542/343 742/561/343
f 775/584/350 747/587/350 779/587/350 780/584/350
f 774/580/350 760/577/350 781/577/350 782/580/350
f 753/563/351 782/580/351 781/577/351 760/577/351 773/576/351 752/573/351 772/572/351 761/570/351 771/569/351 758/571/351 776/589/351 759/585/351 775/584/351 780/584/351 779/587/351 778/539/351 766/560/351 767/559/351
o Cone
v 9.085711 1.536402 -0.505221
v 9.085711 1.536402 0.505221
v 8.890621 1.536402 0.495513
v 8.703028 1.536402 0.466763
v 8.530141 1.536402 0.420076
v 8.378605 1.536402 0.357245
v 8.254242 1.536402 0.280686
v 8.161832 1.536402 0.193340
v 8.104926 1.536402 0.098564
v 8.085711 1.536402 0.000000
v 8.104926 1.536402 -0.098564
v 8.161832 1.536402 -0.193340
v 8.254242 1.536402 -0.280686
v 8.378605 1.536402 -0.357245
v 8.530141 1.536402 -0.420076
v 8.703028 1.536402 -0.466763
v 8.890621 1.536402 -0.495513
v 9.085711 3.536402 0.000000
vn 1.0000 -0.0000 -0.0000
vn -0.0482 0.2446 0.9684
vn -0.1466 0.2513 0.9567
vn -0.2514 0.2653 0.9308
vn -0.3668 0.2877 0.8847
vn -0.4967 0.3197 0.8069
vn -0.6405 0.3614 0.6776
vn -0.7830 0.4072 0.4702
vn -0.8811 0.4406 0.1718
vn -0.8811 0.4406 -0.1718
vn -0.7830 0.4072 -0.4702
vn -0.6405 0.3614 -0.6776
vn -0.4967 0.3197 -0.8069
vn -0.3668 0.2877 -0.8847
vn -0.2514 0.2653 -0.9308
vn -0.1466 0.2513 -0.9567
vn -0.0482 0.2446 -0.9684
vt 0.250000 0.250000
vt 0.250000 0.010000
vt 0.250000 0.490000
vt 0.203178 0.014612
vt 0.158156 0.028269
vt 0.116663 0.050447
vt 0.080294 0.080294
vt 0.050447 0.116663
vt 0.028269 0.158156
vt 0.014612 0.203178
vt 0.010000 0.250000
vt 0.014612 0.296822
vt 0.028269 0.341844
vt 0.050447 0.383337
vt 0.080294 0.419706
vt 0.116663 0.449553
vt 0.158156 0.471731
vt 0.203178 0.485388
s 0
f 800/590/352 784/591/352 783/592/352
f 784/591/353 800/590/353 785/593/353
f 785/593/354 800/590/354 786/594/354
f 786/594/355 800/590/355 787/595/355
f 787/595/356 800/590/356 788/596/356
f 788/596/357 800/590/357 789/597/357
f 789/597/358 800/590/358 790/598/358
f 790/598/359 800/590/359 791/599/359
f 791/599/360 800/590/360 792/600/360
f 792/600/361 800/590/361 793/601/361
f 793/601/362 800/590/362 794/602/362
f 794/602/363 800/590/363 795/603/363
f 795/603/364 800/590/364 796/604/364
f 796/604/365 800/590/365 797/605/365
f 797/605/366 800/590/366 798/606/366
f 798/606/367 800/590/367 799/607/367
f 799/607/368 800/590/368 783/592/368
